<svg xmlns="http://www.w3.org/2000/svg" viewBox="0 0 64 64"><defs><style>.cls-1{opacity:0.3;}.cls-2{fill:#633347;}.cls-3{fill:#9a3726;}.cls-4{fill:#b0462c;}.cls-5{fill:#c65a41;}.cls-6{fill:#ffefd1;}.cls-7{fill:#ffd482;}.cls-8{fill:#ffe3b0;}.cls-9{fill:#c15938;}.cls-10{fill:#120a03;}.cls-11{fill:#445a74;}.cls-12{fill:#ecf8f0;}.cls-13{fill:#282b4a;}.cls-14{fill:#ea6482;}.cls-15{fill:#f6b0a7;}.cls-16{fill:none;}</style></defs><g id="Capa_2" data-name="Capa 2"><g id="Capa_1-2" data-name="Capa 1"><g class="cls-1"><polygon class="cls-2" points="14.44 52.98 16.34 52.98 18.23 52.98 20.13 52.98 22.03 52.98 23.93 52.98 25.83 52.98 27.73 52.98 29.63 52.98 31.52 52.98 33.42 52.98 35.32 52.98 37.22 52.98 39.12 52.98 41.02 52.98 42.92 52.98 44.82 52.98 46.72 52.98 48.61 52.98 50.51 52.98 52.41 52.98 52.41 51.08 54.31 51.08 54.31 49.18 56.21 49.18 56.21 47.28 58.11 47.28 58.11 45.38 58.11 43.48 60.01 43.48 60.01 41.59 60.01 39.69 60.01 37.79 60.01 35.89 60.01 33.99 60.01 32.09 60.01 30.19 60.01 28.3 58.11 28.3 58.11 26.4 58.11 24.5 56.21 24.5 56.21 22.6 54.31 22.6 54.31 20.7 52.41 20.7 52.41 18.8 50.51 18.8 50.51 16.9 48.61 16.9 48.61 15 46.72 15 44.82 15 42.92 15 42.92 13.11 41.02 13.11 39.12 13.11 37.22 13.11 35.32 13.11 33.42 13.11 31.52 13.11 29.63 13.11 27.73 13.11 25.83 13.11 23.93 13.11 22.03 13.11 20.13 13.11 18.23 13.11 16.34 13.11 16.34 15 14.44 15 12.54 15 12.54 16.9 10.64 16.9 10.64 18.8 10.64 20.7 8.74 20.7 8.74 22.6 8.74 24.5 6.84 24.5 6.84 26.4 6.84 28.3 6.84 30.19 6.84 32.09 6.84 33.99 6.84 35.89 6.84 37.79 6.84 39.69 6.84 41.59 6.84 43.48 6.84 45.38 6.84 47.28 6.84 49.18 6.84 51.08 8.74 51.08 8.74 52.98 10.64 52.98 12.54 52.98 14.44 52.98"/><rect class="cls-3" x="47.66" y="49" width="1.9" height="1.9"/><rect class="cls-3" x="45.77" y="49" width="1.9" height="1.9"/><rect class="cls-3" x="43.87" y="49" width="1.9" height="1.9"/><rect class="cls-3" x="41.97" y="49" width="1.9" height="1.9"/><rect class="cls-3" x="40.07" y="49" width="1.9" height="1.9"/><rect class="cls-3" x="38.17" y="49" width="1.9" height="1.9"/><rect class="cls-3" x="36.27" y="49" width="1.9" height="1.9"/><rect class="cls-3" x="34.37" y="49" width="1.9" height="1.9"/><rect class="cls-3" x="32.47" y="49" width="1.9" height="1.9"/><rect class="cls-3" x="30.58" y="49" width="1.9" height="1.9"/><rect class="cls-3" x="28.68" y="49" width="1.9" height="1.9"/><rect class="cls-3" x="26.78" y="49" width="1.9" height="1.9"/><rect class="cls-3" x="24.88" y="49" width="1.9" height="1.9"/><rect class="cls-3" x="22.98" y="49" width="1.9" height="1.9"/><rect class="cls-3" x="21.08" y="49" width="1.9" height="1.9"/><rect class="cls-3" x="19.18" y="49" width="1.9" height="1.9"/><rect class="cls-3" x="17.28" y="49" width="1.9" height="1.9"/><rect class="cls-3" x="15.39" y="49" width="1.9" height="1.9"/><rect class="cls-3" x="13.49" y="49" width="1.9" height="1.9"/><rect class="cls-3" x="11.59" y="49" width="1.9" height="1.9"/><rect class="cls-3" x="9.69" y="49" width="1.9" height="1.9"/><rect class="cls-3" x="7.79" y="49" width="1.9" height="1.9"/><rect class="cls-3" x="5.89" y="49" width="1.9" height="1.9"/><rect class="cls-3" x="49.56" y="47.1" width="1.9" height="1.9"/><rect class="cls-3" x="47.66" y="47.1" width="1.9" height="1.9"/><rect class="cls-4" x="45.77" y="47.1" width="1.9" height="1.9"/><rect class="cls-4" x="43.87" y="47.1" width="1.9" height="1.9"/><rect class="cls-4" x="41.97" y="47.1" width="1.9" height="1.9"/><rect class="cls-4" x="40.07" y="47.1" width="1.9" height="1.9"/><rect class="cls-4" x="38.17" y="47.1" width="1.9" height="1.9"/><rect class="cls-5" x="36.27" y="47.1" width="1.9" height="1.9"/><rect class="cls-5" x="34.37" y="47.1" width="1.9" height="1.9"/><rect class="cls-4" x="32.47" y="47.1" width="1.9" height="1.9"/><rect class="cls-4" x="30.58" y="47.1" width="1.9" height="1.9"/><rect class="cls-4" x="28.68" y="47.1" width="1.9" height="1.9"/><rect class="cls-6" x="26.78" y="47.1" width="1.9" height="1.9"/><rect class="cls-7" x="24.88" y="47.1" width="1.9" height="1.9"/><rect class="cls-6" x="22.98" y="47.1" width="1.9" height="1.9"/><rect class="cls-8" x="21.08" y="47.1" width="1.9" height="1.9"/><rect class="cls-6" x="19.18" y="47.1" width="1.9" height="1.9"/><rect class="cls-8" x="17.28" y="47.1" width="1.9" height="1.9"/><rect class="cls-8" x="15.39" y="47.1" width="1.9" height="1.9"/><rect class="cls-6" x="13.49" y="47.1" width="1.9" height="1.9"/><rect class="cls-7" x="11.59" y="47.1" width="1.9" height="1.9"/><rect class="cls-6" x="9.69" y="47.1" width="1.9" height="1.9"/><rect class="cls-7" x="7.79" y="47.1" width="1.9" height="1.9"/><rect class="cls-4" x="5.89" y="47.1" width="1.9" height="1.9"/><rect class="cls-4" x="3.99" y="47.1" width="1.9" height="1.9"/><rect class="cls-3" x="51.46" y="45.2" width="1.9" height="1.9"/><rect class="cls-3" x="49.56" y="45.2" width="1.9" height="1.9"/><rect class="cls-4" x="47.66" y="45.2" width="1.9" height="1.9"/><rect class="cls-4" x="45.77" y="45.2" width="1.9" height="1.9"/><rect class="cls-4" x="43.87" y="45.2" width="1.9" height="1.9"/><rect class="cls-4" x="41.97" y="45.2" width="1.9" height="1.9"/><rect class="cls-4" x="40.07" y="45.2" width="1.9" height="1.9"/><rect class="cls-5" x="38.17" y="45.2" width="1.9" height="1.9"/><rect class="cls-5" x="36.27" y="45.2" width="1.9" height="1.9"/><rect class="cls-5" x="34.37" y="45.2" width="1.9" height="1.9"/><rect class="cls-5" x="32.47" y="45.2" width="1.9" height="1.9"/><rect class="cls-4" x="30.58" y="45.2" width="1.9" height="1.9"/><rect class="cls-6" x="28.68" y="45.2" width="1.9" height="1.9"/><rect class="cls-7" x="26.78" y="45.2" width="1.9" height="1.9"/><rect class="cls-6" x="24.88" y="45.2" width="1.9" height="1.9"/><rect class="cls-6" x="22.98" y="45.2" width="1.9" height="1.9"/><rect class="cls-6" x="21.08" y="45.2" width="1.9" height="1.9"/><rect class="cls-6" x="19.18" y="45.2" width="1.9" height="1.9"/><rect class="cls-6" x="17.28" y="45.2" width="1.9" height="1.9"/><rect class="cls-6" x="15.39" y="45.2" width="1.9" height="1.9"/><rect class="cls-6" x="13.49" y="45.2" width="1.9" height="1.9"/><rect class="cls-6" x="11.59" y="45.2" width="1.9" height="1.9"/><rect class="cls-6" x="9.69" y="45.2" width="1.9" height="1.9"/><rect class="cls-6" x="7.79" y="45.2" width="1.9" height="1.9"/><rect class="cls-6" x="5.89" y="45.2" width="1.9" height="1.9"/><rect class="cls-4" x="3.99" y="45.2" width="1.9" height="1.9"/><rect class="cls-3" x="53.36" y="43.3" width="1.9" height="1.9"/><rect class="cls-3" x="51.46" y="43.3" width="1.9" height="1.9"/><rect class="cls-4" x="49.56" y="43.3" width="1.9" height="1.9"/><rect class="cls-4" x="47.66" y="43.3" width="1.9" height="1.9"/><rect class="cls-4" x="45.77" y="43.3" width="1.9" height="1.9"/><rect class="cls-4" x="43.87" y="43.3" width="1.9" height="1.9"/><rect class="cls-4" x="41.97" y="43.3" width="1.9" height="1.9"/><rect class="cls-5" x="40.07" y="43.3" width="1.9" height="1.9"/><rect class="cls-5" x="38.17" y="43.3" width="1.9" height="1.9"/><rect class="cls-5" x="36.27" y="43.3" width="1.9" height="1.9"/><rect class="cls-5" x="34.37" y="43.3" width="1.9" height="1.9"/><rect class="cls-5" x="32.47" y="43.3" width="1.9" height="1.9"/><rect class="cls-4" x="30.58" y="43.3" width="1.9" height="1.9"/><rect class="cls-6" x="28.68" y="43.3" width="1.9" height="1.9"/><rect class="cls-6" x="26.78" y="43.3" width="1.9" height="1.9"/><rect class="cls-6" x="24.88" y="43.3" width="1.9" height="1.9"/><rect class="cls-6" x="22.98" y="43.3" width="1.9" height="1.9"/><rect class="cls-8" x="21.08" y="43.3" width="1.9" height="1.9"/><rect class="cls-6" x="19.18" y="43.3" width="1.9" height="1.9"/><rect class="cls-6" x="17.28" y="43.3" width="1.9" height="1.9"/><rect class="cls-6" x="15.39" y="43.3" width="1.9" height="1.9"/><rect class="cls-6" x="13.49" y="43.3" width="1.9" height="1.9"/><rect class="cls-6" x="11.59" y="43.3" width="1.9" height="1.9"/><rect class="cls-6" x="9.69" y="43.3" width="1.9" height="1.9"/><rect class="cls-8" x="7.79" y="43.3" width="1.9" height="1.9"/><rect class="cls-6" x="5.89" y="43.3" width="1.9" height="1.9"/><rect class="cls-4" x="3.99" y="43.3" width="1.9" height="1.9"/><rect class="cls-3" x="53.36" y="41.4" width="1.9" height="1.9"/><rect class="cls-3" x="51.46" y="41.4" width="1.9" height="1.9"/><rect class="cls-4" x="49.56" y="41.4" width="1.9" height="1.9"/><rect class="cls-4" x="47.66" y="41.4" width="1.9" height="1.9"/><rect class="cls-4" x="45.77" y="41.4" width="1.9" height="1.9"/><rect class="cls-4" x="43.87" y="41.4" width="1.9" height="1.9"/><rect class="cls-5" x="41.97" y="41.4" width="1.9" height="1.9"/><rect class="cls-5" x="40.07" y="41.4" width="1.9" height="1.9"/><rect class="cls-4" x="38.17" y="41.4" width="1.9" height="1.9"/><rect class="cls-5" x="36.27" y="41.4" width="1.9" height="1.9"/><rect class="cls-5" x="34.37" y="41.4" width="1.9" height="1.9"/><rect class="cls-4" x="32.47" y="41.4" width="1.9" height="1.9"/><rect class="cls-4" x="30.58" y="41.4" width="1.9" height="1.9"/><rect class="cls-6" x="28.68" y="41.4" width="1.9" height="1.9"/><rect class="cls-6" x="26.78" y="41.4" width="1.9" height="1.9"/><rect class="cls-6" x="24.88" y="41.4" width="1.9" height="1.9"/><rect class="cls-6" x="22.98" y="41.4" width="1.9" height="1.9"/><rect class="cls-6" x="21.08" y="41.4" width="1.9" height="1.9"/><rect class="cls-6" x="19.18" y="41.4" width="1.9" height="1.9"/><rect class="cls-7" x="17.28" y="41.4" width="1.9" height="1.9"/><rect class="cls-6" x="15.39" y="41.4" width="1.9" height="1.9"/><rect class="cls-6" x="13.49" y="41.4" width="1.9" height="1.9"/><rect class="cls-6" x="11.59" y="41.4" width="1.9" height="1.9"/><rect class="cls-6" x="9.69" y="41.4" width="1.9" height="1.9"/><rect class="cls-6" x="7.79" y="41.4" width="1.9" height="1.9"/><rect class="cls-6" x="5.89" y="41.4" width="1.9" height="1.9"/><rect class="cls-4" x="3.99" y="41.4" width="1.9" height="1.9"/><rect class="cls-3" x="55.26" y="39.5" width="1.9" height="1.9"/><rect class="cls-3" x="53.36" y="39.5" width="1.9" height="1.9"/><rect class="cls-4" x="51.46" y="39.5" width="1.9" height="1.9"/><rect class="cls-4" x="49.56" y="39.5" width="1.9" height="1.9"/><rect class="cls-4" x="47.66" y="39.5" width="1.9" height="1.9"/><rect class="cls-5" x="45.77" y="39.5" width="1.9" height="1.9"/><rect class="cls-5" x="43.87" y="39.5" width="1.9" height="1.9"/><rect class="cls-5" x="41.97" y="39.5" width="1.9" height="1.9"/><rect class="cls-5" x="40.07" y="39.5" width="1.9" height="1.9"/><rect class="cls-5" x="38.17" y="39.5" width="1.9" height="1.9"/><rect class="cls-5" x="36.27" y="39.5" width="1.9" height="1.9"/><rect class="cls-5" x="34.37" y="39.5" width="1.9" height="1.9"/><rect class="cls-4" x="32.47" y="39.5" width="1.9" height="1.9"/><rect class="cls-4" x="30.58" y="39.5" width="1.9" height="1.9"/><rect class="cls-6" x="28.68" y="39.5" width="1.9" height="1.9"/><rect class="cls-6" x="26.78" y="39.5" width="1.9" height="1.9"/><rect class="cls-7" x="24.88" y="39.5" width="1.9" height="1.9"/><rect class="cls-6" x="22.98" y="39.5" width="1.9" height="1.9"/><rect class="cls-6" x="21.08" y="39.5" width="1.9" height="1.9"/><rect class="cls-6" x="19.18" y="39.5" width="1.9" height="1.9"/><rect class="cls-6" x="17.28" y="39.5" width="1.9" height="1.9"/><rect class="cls-6" x="15.39" y="39.5" width="1.9" height="1.9"/><rect class="cls-6" x="13.49" y="39.5" width="1.9" height="1.9"/><rect class="cls-8" x="11.59" y="39.5" width="1.9" height="1.9"/><rect class="cls-6" x="9.69" y="39.5" width="1.9" height="1.9"/><rect class="cls-6" x="7.79" y="39.5" width="1.9" height="1.9"/><rect class="cls-7" x="5.89" y="39.5" width="1.9" height="1.9"/><rect class="cls-4" x="3.99" y="39.5" width="1.9" height="1.9"/><rect class="cls-3" x="55.26" y="37.6" width="1.9" height="1.9"/><rect class="cls-3" x="53.36" y="37.6" width="1.9" height="1.9"/><rect class="cls-4" x="51.46" y="37.6" width="1.9" height="1.9"/><rect class="cls-4" x="49.56" y="37.6" width="1.9" height="1.9"/><rect class="cls-4" x="47.66" y="37.6" width="1.9" height="1.9"/><rect class="cls-4" x="45.77" y="37.6" width="1.9" height="1.9"/><rect class="cls-5" x="43.87" y="37.6" width="1.9" height="1.9"/><rect class="cls-5" x="41.97" y="37.6" width="1.9" height="1.9"/><rect class="cls-5" x="40.07" y="37.6" width="1.9" height="1.9"/><rect class="cls-5" x="38.17" y="37.6" width="1.9" height="1.9"/><rect class="cls-5" x="36.27" y="37.6" width="1.9" height="1.9"/><rect class="cls-5" x="34.37" y="37.6" width="1.9" height="1.9"/><rect class="cls-5" x="32.47" y="37.6" width="1.9" height="1.9"/><rect class="cls-4" x="30.58" y="37.6" width="1.9" height="1.9"/><rect class="cls-7" x="28.68" y="37.6" width="1.9" height="1.9"/><rect class="cls-6" x="26.78" y="37.6" width="1.9" height="1.9"/><rect class="cls-6" x="24.88" y="37.6" width="1.9" height="1.9"/><rect class="cls-6" x="22.98" y="37.6" width="1.9" height="1.9"/><rect class="cls-6" x="21.08" y="37.6" width="1.9" height="1.9"/><rect class="cls-6" x="19.18" y="37.6" width="1.9" height="1.9"/><rect class="cls-6" x="17.28" y="37.6" width="1.9" height="1.9"/><rect class="cls-7" x="15.39" y="37.6" width="1.9" height="1.9"/><rect class="cls-6" x="13.49" y="37.6" width="1.9" height="1.9"/><rect class="cls-6" x="11.59" y="37.6" width="1.9" height="1.9"/><rect class="cls-6" x="9.69" y="37.6" width="1.9" height="1.9"/><rect class="cls-6" x="7.79" y="37.6" width="1.9" height="1.9"/><rect class="cls-6" x="5.89" y="37.6" width="1.9" height="1.9"/><rect class="cls-4" x="3.99" y="37.6" width="1.9" height="1.9"/><rect class="cls-3" x="55.26" y="35.71" width="1.9" height="1.9"/><rect class="cls-3" x="53.36" y="35.71" width="1.9" height="1.9"/><rect class="cls-4" x="51.46" y="35.71" width="1.9" height="1.9"/><rect class="cls-4" x="49.56" y="35.71" width="1.9" height="1.9"/><rect class="cls-4" x="47.66" y="35.71" width="1.9" height="1.9"/><rect class="cls-5" x="45.77" y="35.71" width="1.9" height="1.9"/><rect class="cls-5" x="43.87" y="35.71" width="1.9" height="1.9"/><rect class="cls-5" x="41.97" y="35.71" width="1.9" height="1.9"/><rect class="cls-5" x="40.07" y="35.71" width="1.9" height="1.9"/><rect class="cls-5" x="38.17" y="35.71" width="1.9" height="1.9"/><rect class="cls-5" x="36.27" y="35.71" width="1.9" height="1.9"/><rect class="cls-4" x="34.37" y="35.71" width="1.9" height="1.9"/><rect class="cls-5" x="32.47" y="35.71" width="1.9" height="1.9"/><rect class="cls-4" x="30.58" y="35.71" width="1.9" height="1.9"/><rect class="cls-6" x="28.68" y="35.71" width="1.9" height="1.9"/><rect class="cls-6" x="26.78" y="35.71" width="1.9" height="1.9"/><rect class="cls-8" x="24.88" y="35.71" width="1.9" height="1.9"/><rect class="cls-7" x="22.98" y="35.71" width="1.9" height="1.9"/><rect class="cls-6" x="21.08" y="35.71" width="1.9" height="1.9"/><rect class="cls-6" x="19.18" y="35.71" width="1.9" height="1.9"/><rect class="cls-6" x="17.28" y="35.71" width="1.9" height="1.9"/><rect class="cls-8" x="15.39" y="35.71" width="1.9" height="1.9"/><rect class="cls-6" x="13.49" y="35.71" width="1.9" height="1.9"/><rect class="cls-8" x="11.59" y="35.71" width="1.9" height="1.9"/><rect class="cls-6" x="9.69" y="35.71" width="1.9" height="1.9"/><rect class="cls-7" x="7.79" y="35.71" width="1.9" height="1.9"/><rect class="cls-6" x="5.89" y="35.71" width="1.9" height="1.9"/><rect class="cls-4" x="3.99" y="35.71" width="1.9" height="1.9"/><rect class="cls-3" x="55.26" y="33.81" width="1.9" height="1.9"/><rect class="cls-3" x="53.36" y="33.81" width="1.9" height="1.9"/><rect class="cls-4" x="51.46" y="33.81" width="1.9" height="1.9"/><rect class="cls-4" x="49.56" y="33.81" width="1.9" height="1.9"/><rect class="cls-4" x="47.66" y="33.81" width="1.9" height="1.9"/><rect class="cls-5" x="45.77" y="33.81" width="1.9" height="1.9"/><rect class="cls-4" x="43.87" y="33.81" width="1.9" height="1.9"/><rect class="cls-5" x="41.97" y="33.81" width="1.9" height="1.9"/><rect class="cls-5" x="40.07" y="33.81" width="1.9" height="1.9"/><rect class="cls-5" x="38.17" y="33.81" width="1.9" height="1.9"/><rect class="cls-5" x="36.27" y="33.81" width="1.9" height="1.9"/><rect class="cls-5" x="34.37" y="33.81" width="1.9" height="1.9"/><rect class="cls-5" x="32.47" y="33.81" width="1.9" height="1.9"/><rect class="cls-4" x="30.58" y="33.81" width="1.9" height="1.9"/><rect class="cls-6" x="28.68" y="33.81" width="1.9" height="1.9"/><rect class="cls-6" x="26.78" y="33.81" width="1.9" height="1.9"/><rect class="cls-6" x="24.88" y="33.81" width="1.9" height="1.9"/><rect class="cls-6" x="22.98" y="33.81" width="1.9" height="1.9"/><rect class="cls-6" x="21.08" y="33.81" width="1.9" height="1.9"/><rect class="cls-6" x="19.18" y="33.81" width="1.9" height="1.9"/><rect class="cls-6" x="17.28" y="33.81" width="1.9" height="1.9"/><rect class="cls-6" x="15.39" y="33.81" width="1.9" height="1.9"/><rect class="cls-6" x="13.49" y="33.81" width="1.9" height="1.9"/><rect class="cls-6" x="11.59" y="33.81" width="1.9" height="1.9"/><rect class="cls-6" x="9.69" y="33.81" width="1.9" height="1.9"/><rect class="cls-6" x="7.79" y="33.81" width="1.9" height="1.9"/><rect class="cls-6" x="5.89" y="33.81" width="1.9" height="1.9"/><rect class="cls-4" x="3.99" y="33.81" width="1.9" height="1.9"/><rect class="cls-3" x="55.26" y="31.91" width="1.9" height="1.9"/><rect class="cls-3" x="53.36" y="31.91" width="1.9" height="1.9"/><rect class="cls-4" x="51.46" y="31.91" width="1.9" height="1.9"/><rect class="cls-4" x="49.56" y="31.91" width="1.9" height="1.9"/><rect class="cls-4" x="47.66" y="31.91" width="1.9" height="1.9"/><rect class="cls-4" x="45.77" y="31.91" width="1.9" height="1.9"/><rect class="cls-5" x="43.87" y="31.91" width="1.9" height="1.9"/><rect class="cls-5" x="41.97" y="31.91" width="1.9" height="1.9"/><rect class="cls-5" x="40.07" y="31.91" width="1.9" height="1.9"/><rect class="cls-5" x="38.17" y="31.91" width="1.9" height="1.9"/><rect class="cls-5" x="36.27" y="31.91" width="1.9" height="1.9"/><rect class="cls-5" x="34.37" y="31.91" width="1.9" height="1.9"/><rect class="cls-5" x="32.47" y="31.91" width="1.9" height="1.9"/><rect class="cls-4" x="30.58" y="31.91" width="1.9" height="1.9"/><rect class="cls-7" x="28.68" y="31.91" width="1.9" height="1.9"/><rect class="cls-6" x="26.78" y="31.91" width="1.9" height="1.9"/><rect class="cls-8" x="24.88" y="31.91" width="1.9" height="1.9"/><rect class="cls-6" x="22.98" y="31.91" width="1.9" height="1.9"/><rect class="cls-6" x="21.08" y="31.91" width="1.9" height="1.9"/><rect class="cls-6" x="19.18" y="31.91" width="1.9" height="1.9"/><rect class="cls-6" x="17.28" y="31.91" width="1.9" height="1.9"/><rect class="cls-8" x="15.39" y="31.91" width="1.9" height="1.9"/><rect class="cls-6" x="13.49" y="31.91" width="1.9" height="1.9"/><rect class="cls-6" x="11.59" y="31.91" width="1.9" height="1.9"/><rect class="cls-6" x="9.69" y="31.91" width="1.9" height="1.9"/><rect class="cls-7" x="7.79" y="31.91" width="1.9" height="1.9"/><rect class="cls-6" x="5.89" y="31.91" width="1.9" height="1.9"/><rect class="cls-4" x="3.99" y="31.91" width="1.9" height="1.9"/><rect class="cls-3" x="55.26" y="30.01" width="1.9" height="1.9"/><rect class="cls-3" x="53.36" y="30.01" width="1.9" height="1.9"/><rect class="cls-4" x="51.46" y="30.01" width="1.9" height="1.9"/><rect class="cls-4" x="49.56" y="30.01" width="1.9" height="1.9"/><rect class="cls-5" x="47.66" y="30.01" width="1.9" height="1.9"/><rect class="cls-5" x="45.77" y="30.01" width="1.9" height="1.9"/><rect class="cls-5" x="43.87" y="30.01" width="1.9" height="1.9"/><rect class="cls-5" x="41.97" y="30.01" width="1.9" height="1.9"/><rect class="cls-4" x="40.07" y="30.01" width="1.9" height="1.9"/><rect class="cls-5" x="38.17" y="30.01" width="1.9" height="1.9"/><rect class="cls-5" x="36.27" y="30.01" width="1.9" height="1.9"/><rect class="cls-4" x="34.37" y="30.01" width="1.9" height="1.9"/><rect class="cls-5" x="32.47" y="30.01" width="1.9" height="1.9"/><rect class="cls-4" x="30.58" y="30.01" width="1.9" height="1.9"/><rect class="cls-6" x="28.68" y="30.01" width="1.9" height="1.9"/><rect class="cls-6" x="26.78" y="30.01" width="1.9" height="1.9"/><rect class="cls-6" x="24.88" y="30.01" width="1.9" height="1.9"/><rect class="cls-6" x="22.98" y="30.01" width="1.9" height="1.9"/><rect class="cls-6" x="21.08" y="30.01" width="1.9" height="1.9"/><rect class="cls-7" x="19.18" y="30.01" width="1.9" height="1.9"/><rect class="cls-6" x="17.28" y="30.01" width="1.9" height="1.9"/><rect class="cls-6" x="15.39" y="30.01" width="1.9" height="1.9"/><rect class="cls-6" x="13.49" y="30.01" width="1.9" height="1.9"/><rect class="cls-8" x="11.59" y="30.01" width="1.9" height="1.9"/><rect class="cls-6" x="9.69" y="30.01" width="1.9" height="1.9"/><rect class="cls-6" x="7.79" y="30.01" width="1.9" height="1.9"/><rect class="cls-6" x="5.89" y="30.01" width="1.9" height="1.9"/><rect class="cls-4" x="3.99" y="30.01" width="1.9" height="1.9"/><rect class="cls-3" x="55.26" y="28.11" width="1.9" height="1.9"/><rect class="cls-3" x="53.36" y="28.11" width="1.9" height="1.9"/><rect class="cls-4" x="51.46" y="28.11" width="1.9" height="1.9"/><rect class="cls-4" x="49.56" y="28.11" width="1.9" height="1.9"/><rect class="cls-5" x="47.66" y="28.11" width="1.9" height="1.9"/><rect class="cls-5" x="45.77" y="28.11" width="1.9" height="1.9"/><rect class="cls-5" x="43.87" y="28.11" width="1.9" height="1.9"/><rect class="cls-4" x="41.97" y="28.11" width="1.9" height="1.9"/><rect class="cls-5" x="40.07" y="28.11" width="1.9" height="1.9"/><rect class="cls-5" x="38.17" y="28.11" width="1.9" height="1.9"/><rect class="cls-5" x="36.27" y="28.11" width="1.9" height="1.9"/><rect class="cls-5" x="34.37" y="28.11" width="1.9" height="1.9"/><rect class="cls-5" x="32.47" y="28.11" width="1.9" height="1.9"/><rect class="cls-4" x="30.58" y="28.11" width="1.9" height="1.9"/><rect class="cls-6" x="28.68" y="28.11" width="1.9" height="1.9"/><rect class="cls-7" x="26.78" y="28.11" width="1.9" height="1.9"/><rect class="cls-6" x="24.88" y="28.11" width="1.9" height="1.9"/><rect class="cls-6" x="22.98" y="28.11" width="1.9" height="1.9"/><rect class="cls-6" x="21.08" y="28.11" width="1.9" height="1.9"/><rect class="cls-6" x="19.18" y="28.11" width="1.9" height="1.9"/><rect class="cls-6" x="17.28" y="28.11" width="1.9" height="1.9"/><rect class="cls-6" x="15.39" y="28.11" width="1.9" height="1.9"/><rect class="cls-6" x="13.49" y="28.11" width="1.9" height="1.9"/><rect class="cls-6" x="11.59" y="28.11" width="1.9" height="1.9"/><rect class="cls-6" x="9.69" y="28.11" width="1.9" height="1.9"/><rect class="cls-6" x="7.79" y="28.11" width="1.9" height="1.9"/><rect class="cls-7" x="5.89" y="28.11" width="1.9" height="1.9"/><rect class="cls-4" x="3.99" y="28.11" width="1.9" height="1.9"/><rect class="cls-3" x="55.26" y="26.21" width="1.9" height="1.9"/><rect class="cls-3" x="53.36" y="26.21" width="1.9" height="1.9"/><rect class="cls-4" x="51.46" y="26.21" width="1.9" height="1.9"/><rect class="cls-4" x="49.56" y="26.21" width="1.9" height="1.9"/><rect class="cls-4" x="47.66" y="26.21" width="1.9" height="1.9"/><rect class="cls-4" x="45.77" y="26.21" width="1.9" height="1.9"/><rect class="cls-5" x="43.87" y="26.21" width="1.9" height="1.9"/><rect class="cls-5" x="41.97" y="26.21" width="1.9" height="1.9"/><rect class="cls-5" x="40.07" y="26.21" width="1.9" height="1.9"/><rect class="cls-5" x="38.17" y="26.21" width="1.9" height="1.9"/><rect class="cls-5" x="36.27" y="26.21" width="1.9" height="1.9"/><rect class="cls-5" x="34.37" y="26.21" width="1.9" height="1.9"/><rect class="cls-5" x="32.47" y="26.21" width="1.9" height="1.9"/><rect class="cls-4" x="30.58" y="26.21" width="1.9" height="1.9"/><rect class="cls-7" x="28.68" y="26.21" width="1.9" height="1.9"/><rect class="cls-6" x="26.78" y="26.21" width="1.9" height="1.9"/><rect class="cls-6" x="24.88" y="26.21" width="1.9" height="1.9"/><rect class="cls-6" x="22.98" y="26.21" width="1.9" height="1.9"/><rect class="cls-6" x="21.08" y="26.21" width="1.9" height="1.9"/><rect class="cls-8" x="19.18" y="26.21" width="1.9" height="1.9"/><rect class="cls-6" x="17.28" y="26.21" width="1.9" height="1.9"/><rect class="cls-6" x="15.39" y="26.21" width="1.9" height="1.9"/><rect class="cls-6" x="13.49" y="26.21" width="1.9" height="1.9"/><rect class="cls-6" x="11.59" y="26.21" width="1.9" height="1.9"/><rect class="cls-6" x="9.69" y="26.21" width="1.9" height="1.9"/><rect class="cls-8" x="7.79" y="26.21" width="1.9" height="1.9"/><rect class="cls-7" x="5.89" y="26.21" width="1.9" height="1.9"/><rect class="cls-4" x="3.99" y="26.21" width="1.9" height="1.9"/><rect class="cls-4" x="53.36" y="24.31" width="1.9" height="1.9"/><rect class="cls-4" x="51.46" y="24.31" width="1.9" height="1.9"/><rect class="cls-4" x="49.56" y="24.31" width="1.9" height="1.9"/><rect class="cls-5" x="47.66" y="24.31" width="1.9" height="1.9"/><rect class="cls-5" x="45.77" y="24.31" width="1.9" height="1.9"/><rect class="cls-5" x="43.87" y="24.31" width="1.9" height="1.9"/><rect class="cls-5" x="41.97" y="24.31" width="1.9" height="1.9"/><rect class="cls-5" x="40.07" y="24.31" width="1.9" height="1.9"/><rect class="cls-4" x="38.17" y="24.31" width="1.9" height="1.9"/><rect class="cls-5" x="36.27" y="24.31" width="1.9" height="1.9"/><rect class="cls-4" x="34.37" y="24.31" width="1.9" height="1.9"/><rect class="cls-5" x="32.47" y="24.31" width="1.9" height="1.9"/><rect class="cls-4" x="30.58" y="24.31" width="1.9" height="1.9"/><rect class="cls-6" x="28.68" y="24.31" width="1.9" height="1.9"/><rect class="cls-6" x="26.78" y="24.31" width="1.9" height="1.9"/><rect class="cls-6" x="24.88" y="24.31" width="1.9" height="1.9"/><rect class="cls-6" x="22.98" y="24.31" width="1.9" height="1.9"/><rect class="cls-6" x="21.08" y="24.31" width="1.9" height="1.9"/><rect class="cls-6" x="19.18" y="24.31" width="1.9" height="1.9"/><rect class="cls-6" x="17.28" y="24.31" width="1.9" height="1.9"/><rect class="cls-6" x="15.39" y="24.31" width="1.9" height="1.9"/><rect class="cls-6" x="13.49" y="24.31" width="1.9" height="1.9"/><rect class="cls-8" x="11.59" y="24.31" width="1.9" height="1.9"/><rect class="cls-6" x="9.69" y="24.31" width="1.9" height="1.9"/><rect class="cls-6" x="7.79" y="24.31" width="1.9" height="1.9"/><rect class="cls-6" x="5.89" y="24.31" width="1.9" height="1.9"/><rect class="cls-4" x="3.99" y="24.31" width="1.9" height="1.9"/><rect class="cls-3" x="53.36" y="22.41" width="1.9" height="1.9"/><rect class="cls-3" x="51.46" y="22.41" width="1.9" height="1.9"/><rect class="cls-4" x="49.56" y="22.41" width="1.9" height="1.9"/><rect class="cls-4" x="47.66" y="22.41" width="1.9" height="1.9"/><rect class="cls-5" x="45.77" y="22.41" width="1.9" height="1.9"/><rect class="cls-5" x="43.87" y="22.41" width="1.9" height="1.9"/><rect class="cls-4" x="41.97" y="22.41" width="1.9" height="1.9"/><rect class="cls-5" x="40.07" y="22.41" width="1.9" height="1.9"/><rect class="cls-5" x="38.17" y="22.41" width="1.9" height="1.9"/><rect class="cls-5" x="36.27" y="22.41" width="1.9" height="1.9"/><rect class="cls-5" x="34.37" y="22.41" width="1.9" height="1.9"/><rect class="cls-4" x="32.47" y="22.41" width="1.9" height="1.9"/><rect class="cls-4" x="30.58" y="22.41" width="1.9" height="1.9"/><rect class="cls-4" x="28.68" y="22.41" width="1.9" height="1.9"/><rect class="cls-6" x="26.78" y="22.41" width="1.9" height="1.9"/><rect class="cls-6" x="24.88" y="22.41" width="1.9" height="1.9"/><rect class="cls-6" x="22.98" y="22.41" width="1.9" height="1.9"/><rect class="cls-8" x="21.08" y="22.41" width="1.9" height="1.9"/><rect class="cls-6" x="19.18" y="22.41" width="1.9" height="1.9"/><rect class="cls-6" x="17.28" y="22.41" width="1.9" height="1.9"/><rect class="cls-7" x="15.39" y="22.41" width="1.9" height="1.9"/><rect class="cls-6" x="13.49" y="22.41" width="1.9" height="1.9"/><rect class="cls-6" x="11.59" y="22.41" width="1.9" height="1.9"/><rect class="cls-6" x="9.69" y="22.41" width="1.9" height="1.9"/><rect class="cls-6" x="7.79" y="22.41" width="1.9" height="1.9"/><rect class="cls-4" x="5.89" y="22.41" width="1.9" height="1.9"/><rect class="cls-4" x="3.99" y="22.41" width="1.9" height="1.9"/><rect class="cls-4" x="51.46" y="20.52" width="1.9" height="1.9"/><rect class="cls-9" x="49.56" y="20.52" width="1.9" height="1.9"/><rect class="cls-3" x="47.66" y="20.52" width="1.9" height="1.9"/><rect class="cls-5" x="45.77" y="20.52" width="1.9" height="1.9"/><rect class="cls-5" x="43.87" y="20.52" width="1.9" height="1.9"/><rect class="cls-5" x="41.97" y="20.52" width="1.9" height="1.9"/><rect class="cls-5" x="40.07" y="20.52" width="1.9" height="1.9"/><rect class="cls-5" x="38.17" y="20.52" width="1.9" height="1.9"/><rect class="cls-5" x="36.27" y="20.52" width="1.9" height="1.9"/><rect class="cls-5" x="34.37" y="20.52" width="1.9" height="1.9"/><rect class="cls-5" x="32.47" y="20.52" width="1.9" height="1.9"/><rect class="cls-5" x="30.58" y="20.52" width="1.9" height="1.9"/><rect class="cls-4" x="28.68" y="20.52" width="1.9" height="1.9"/><rect class="cls-7" x="26.78" y="20.52" width="1.9" height="1.9"/><rect class="cls-6" x="24.88" y="20.52" width="1.9" height="1.9"/><rect class="cls-6" x="22.98" y="20.52" width="1.9" height="1.9"/><rect class="cls-6" x="21.08" y="20.52" width="1.9" height="1.9"/><rect class="cls-6" x="19.18" y="20.52" width="1.9" height="1.9"/><rect class="cls-6" x="17.28" y="20.52" width="1.9" height="1.9"/><rect class="cls-6" x="15.39" y="20.52" width="1.9" height="1.9"/><rect class="cls-6" x="13.49" y="20.52" width="1.9" height="1.9"/><rect class="cls-6" x="11.59" y="20.52" width="1.9" height="1.9"/><rect class="cls-8" x="9.69" y="20.52" width="1.9" height="1.9"/><rect class="cls-7" x="7.79" y="20.52" width="1.9" height="1.9"/><rect class="cls-4" x="5.89" y="20.52" width="1.9" height="1.9"/><rect class="cls-4" x="49.56" y="18.62" width="1.9" height="1.9"/><rect class="cls-4" x="47.66" y="18.62" width="1.9" height="1.9"/><rect class="cls-4" x="45.77" y="18.62" width="1.9" height="1.9"/><rect class="cls-4" x="43.87" y="18.62" width="1.9" height="1.9"/><rect class="cls-4" x="41.97" y="18.62" width="1.9" height="1.9"/><rect class="cls-4" x="40.07" y="18.62" width="1.9" height="1.9"/><rect class="cls-5" x="38.17" y="18.62" width="1.9" height="1.9"/><rect class="cls-4" x="36.27" y="18.62" width="1.9" height="1.9"/><rect class="cls-5" x="34.37" y="18.62" width="1.9" height="1.9"/><rect class="cls-5" x="32.47" y="18.62" width="1.9" height="1.9"/><rect class="cls-4" x="30.58" y="18.62" width="1.9" height="1.9"/><rect class="cls-4" x="28.68" y="18.62" width="1.9" height="1.9"/><rect class="cls-4" x="26.78" y="18.62" width="1.9" height="1.9"/><rect class="cls-6" x="24.88" y="18.62" width="1.9" height="1.9"/><rect class="cls-6" x="22.98" y="18.62" width="1.9" height="1.9"/><rect class="cls-6" x="21.08" y="18.62" width="1.9" height="1.9"/><rect class="cls-8" x="19.18" y="18.62" width="1.9" height="1.9"/><rect class="cls-7" x="17.28" y="18.62" width="1.9" height="1.9"/><rect class="cls-6" x="15.39" y="18.62" width="1.9" height="1.9"/><rect class="cls-6" x="13.49" y="18.62" width="1.9" height="1.9"/><rect class="cls-6" x="11.59" y="18.62" width="1.9" height="1.9"/><rect class="cls-6" x="9.69" y="18.62" width="1.9" height="1.9"/><rect class="cls-4" x="7.79" y="18.62" width="1.9" height="1.9"/><rect class="cls-4" x="5.89" y="18.62" width="1.9" height="1.9"/><rect class="cls-4" x="47.66" y="16.72" width="1.9" height="1.9"/><rect class="cls-5" x="45.77" y="16.72" width="1.9" height="1.9"/><rect class="cls-3" x="43.87" y="16.72" width="1.9" height="1.9"/><rect class="cls-4" x="41.97" y="16.72" width="1.9" height="1.9"/><rect class="cls-4" x="40.07" y="16.72" width="1.9" height="1.9"/><rect class="cls-4" x="38.17" y="16.72" width="1.9" height="1.9"/><rect class="cls-4" x="36.27" y="16.72" width="1.9" height="1.9"/><rect class="cls-4" x="34.37" y="16.72" width="1.9" height="1.9"/><rect class="cls-3" x="32.47" y="16.72" width="1.9" height="1.9"/><rect class="cls-5" x="30.58" y="16.72" width="1.9" height="1.9"/><rect class="cls-4" x="28.68" y="16.72" width="1.9" height="1.9"/><rect class="cls-4" x="26.78" y="16.72" width="1.9" height="1.9"/><rect class="cls-4" x="24.88" y="16.72" width="1.9" height="1.9"/><rect class="cls-8" x="22.98" y="16.72" width="1.9" height="1.9"/><rect class="cls-6" x="21.08" y="16.72" width="1.9" height="1.9"/><rect class="cls-8" x="19.18" y="16.72" width="1.9" height="1.9"/><rect class="cls-8" x="17.28" y="16.72" width="1.9" height="1.9"/><rect class="cls-6" x="15.39" y="16.72" width="1.9" height="1.9"/><rect class="cls-6" x="13.49" y="16.72" width="1.9" height="1.9"/><rect class="cls-6" x="11.59" y="16.72" width="1.9" height="1.9"/><rect class="cls-7" x="9.69" y="16.72" width="1.9" height="1.9"/><rect class="cls-4" x="7.79" y="16.72" width="1.9" height="1.9"/><rect class="cls-5" x="45.77" y="14.82" width="1.9" height="1.9"/><rect class="cls-3" x="43.87" y="14.82" width="1.9" height="1.9"/><rect class="cls-4" x="41.97" y="14.82" width="1.9" height="1.9"/><rect class="cls-3" x="40.07" y="14.82" width="1.9" height="1.9"/><rect class="cls-4" x="38.17" y="14.82" width="1.9" height="1.9"/><rect class="cls-4" x="36.27" y="14.82" width="1.9" height="1.9"/><rect class="cls-4" x="34.37" y="14.82" width="1.9" height="1.9"/><rect class="cls-5" x="32.47" y="14.82" width="1.9" height="1.9"/><rect class="cls-4" x="30.58" y="14.82" width="1.9" height="1.9"/><rect class="cls-3" x="28.68" y="14.82" width="1.9" height="1.9"/><rect class="cls-4" x="26.78" y="14.82" width="1.9" height="1.9"/><rect class="cls-4" x="24.88" y="14.82" width="1.9" height="1.9"/><rect class="cls-4" x="22.98" y="14.82" width="1.9" height="1.9"/><rect class="cls-6" x="21.08" y="14.82" width="1.9" height="1.9"/><rect class="cls-6" x="19.18" y="14.82" width="1.9" height="1.9"/><rect class="cls-6" x="17.28" y="14.82" width="1.9" height="1.9"/><rect class="cls-6" x="15.39" y="14.82" width="1.9" height="1.9"/><rect class="cls-6" x="13.49" y="14.82" width="1.9" height="1.9"/><rect class="cls-8" x="11.59" y="14.82" width="1.9" height="1.9"/><rect class="cls-4" x="9.69" y="14.82" width="1.9" height="1.9"/><rect class="cls-4" x="7.79" y="14.82" width="1.9" height="1.9"/><rect class="cls-4" x="43.87" y="12.92" width="1.9" height="1.9"/><rect class="cls-3" x="41.97" y="12.92" width="1.9" height="1.9"/><rect class="cls-3" x="40.07" y="12.92" width="1.9" height="1.9"/><rect class="cls-5" x="38.17" y="12.92" width="1.9" height="1.9"/><rect class="cls-3" x="36.27" y="12.92" width="1.9" height="1.9"/><rect class="cls-4" x="34.37" y="12.92" width="1.9" height="1.9"/><rect class="cls-4" x="32.47" y="12.92" width="1.9" height="1.9"/><rect class="cls-5" x="30.58" y="12.92" width="1.9" height="1.9"/><rect class="cls-4" x="28.68" y="12.92" width="1.9" height="1.9"/><rect class="cls-4" x="26.78" y="12.92" width="1.9" height="1.9"/><rect class="cls-3" x="24.88" y="12.92" width="1.9" height="1.9"/><rect class="cls-4" x="22.98" y="12.92" width="1.9" height="1.9"/><rect class="cls-4" x="21.08" y="12.92" width="1.9" height="1.9"/><rect class="cls-6" x="19.18" y="12.92" width="1.9" height="1.9"/><rect class="cls-7" x="17.28" y="12.92" width="1.9" height="1.9"/><rect class="cls-7" x="15.39" y="12.92" width="1.9" height="1.9"/><rect class="cls-4" x="13.49" y="12.92" width="1.9" height="1.9"/><rect class="cls-4" x="11.59" y="12.92" width="1.9" height="1.9"/><rect class="cls-4" x="9.69" y="12.92" width="1.9" height="1.9"/><rect class="cls-3" x="38.17" y="11.02" width="1.9" height="1.9"/><rect class="cls-5" x="36.27" y="11.02" width="1.9" height="1.9"/><rect class="cls-3" x="34.37" y="11.02" width="1.9" height="1.9"/><rect class="cls-4" x="32.47" y="11.02" width="1.9" height="1.9"/><rect class="cls-4" x="30.58" y="11.02" width="1.9" height="1.9"/><rect class="cls-3" x="28.68" y="11.02" width="1.9" height="1.9"/><rect class="cls-3" x="26.78" y="11.02" width="1.9" height="1.9"/><rect class="cls-4" x="24.88" y="11.02" width="1.9" height="1.9"/><rect class="cls-3" x="22.98" y="11.02" width="1.9" height="1.9"/><rect class="cls-4" x="21.08" y="11.02" width="1.9" height="1.9"/><rect class="cls-4" x="19.18" y="11.02" width="1.9" height="1.9"/><rect class="cls-4" x="17.28" y="11.02" width="1.9" height="1.9"/><rect class="cls-4" x="15.39" y="11.02" width="1.9" height="1.9"/><rect class="cls-4" x="13.49" y="11.02" width="1.9" height="1.9"/></g><rect class="cls-10" x="31.28" y="14.93" width="1.01" height="1.01"/><rect class="cls-10" x="41.41" y="14.93" width="1.01" height="1.01"/><rect class="cls-10" x="30.27" y="15.94" width="1.01" height="1.01"/><rect class="cls-10" x="42.42" y="15.94" width="1.01" height="1.01"/><rect class="cls-10" x="29.25" y="16.96" width="1.01" height="1.01"/><rect class="cls-10" x="43.44" y="16.96" width="1.01" height="1.01"/><rect class="cls-10" x="27.23" y="18.98" width="1.01" height="1.01"/><rect class="cls-10" x="28.24" y="18.98" width="1.01" height="1.01"/><rect class="cls-10" x="29.25" y="18.98" width="1.01" height="1.01"/><rect class="cls-10" x="43.44" y="18.98" width="1.01" height="1.01"/><rect class="cls-10" x="44.45" y="18.98" width="1.01" height="1.01"/><rect class="cls-10" x="45.46" y="18.98" width="1.01" height="1.01"/><rect class="cls-10" x="26.21" y="19.99" width="1.01" height="1.01"/><rect class="cls-11" x="27.23" y="19.99" width="1.01" height="1.01"/><rect class="cls-11" x="28.24" y="19.99" width="1.01" height="1.01"/><rect class="cls-11" x="29.25" y="19.99" width="1.01" height="1.01"/><rect class="cls-10" x="30.27" y="19.99" width="1.01" height="1.01"/><rect class="cls-10" x="42.42" y="19.99" width="1.01" height="1.01"/><rect class="cls-11" x="43.44" y="19.99" width="1.01" height="1.01"/><rect class="cls-11" x="44.45" y="19.99" width="1.01" height="1.01"/><rect class="cls-11" x="45.46" y="19.99" width="1.01" height="1.01"/><rect class="cls-10" x="46.47" y="19.99" width="1.01" height="1.01"/><rect class="cls-10" x="25.2" y="21.01" width="1.01" height="1.01"/><rect class="cls-11" x="26.21" y="21.01" width="1.01" height="1.01"/><rect class="cls-11" x="27.23" y="21.01" width="1.01" height="1.01"/><rect class="cls-11" x="28.24" y="21.01" width="1.01" height="1.01"/><rect class="cls-12" x="29.25" y="21.01" width="1.01" height="1.01"/><rect class="cls-11" x="30.27" y="21.01" width="1.01" height="1.01"/><rect class="cls-10" x="31.28" y="21.01" width="1.01" height="1.01"/><rect class="cls-10" x="41.41" y="21.01" width="1.01" height="1.01"/><rect class="cls-11" x="42.42" y="21.01" width="1.01" height="1.01"/><rect class="cls-11" x="43.44" y="21.01" width="1.01" height="1.01"/><rect class="cls-11" x="44.45" y="21.01" width="1.01" height="1.01"/><rect class="cls-12" x="45.46" y="21.01" width="1.01" height="1.01"/><rect class="cls-11" x="46.47" y="21.01" width="1.01" height="1.01"/><rect class="cls-10" x="47.49" y="21.01" width="1.01" height="1.01"/><rect class="cls-10" x="25.2" y="22.02" width="1.01" height="1.01"/><rect class="cls-11" x="26.21" y="22.02" width="1.01" height="1.01"/><rect class="cls-11" x="27.23" y="22.02" width="1.01" height="1.01"/><rect class="cls-11" x="28.24" y="22.02" width="1.01" height="1.01"/><rect class="cls-11" x="29.25" y="22.02" width="1.01" height="1.01"/><rect class="cls-11" x="30.27" y="22.02" width="1.01" height="1.01"/><rect class="cls-10" x="31.28" y="22.02" width="1.01" height="1.01"/><rect class="cls-10" x="41.41" y="22.02" width="1.01" height="1.01"/><rect class="cls-11" x="42.42" y="22.02" width="1.01" height="1.01"/><rect class="cls-11" x="43.44" y="22.02" width="1.01" height="1.01"/><rect class="cls-11" x="44.45" y="22.02" width="1.01" height="1.01"/><rect class="cls-11" x="45.46" y="22.02" width="1.01" height="1.01"/><rect class="cls-11" x="46.47" y="22.02" width="1.01" height="1.01"/><rect class="cls-10" x="47.49" y="22.02" width="1.01" height="1.01"/><rect class="cls-10" x="25.2" y="23.03" width="1.01" height="1.01"/><rect class="cls-13" x="26.21" y="23.03" width="1.01" height="1.01"/><rect class="cls-11" x="27.23" y="23.03" width="1.01" height="1.01"/><rect class="cls-11" x="28.24" y="23.03" width="1.01" height="1.01"/><rect class="cls-11" x="29.25" y="23.03" width="1.01" height="1.01"/><rect class="cls-13" x="30.27" y="23.03" width="1.01" height="1.01"/><rect class="cls-10" x="31.28" y="23.03" width="1.01" height="1.01"/><rect class="cls-10" x="41.41" y="23.03" width="1.01" height="1.01"/><rect class="cls-13" x="42.42" y="23.03" width="1.01" height="1.01"/><rect class="cls-11" x="43.44" y="23.03" width="1.01" height="1.01"/><rect class="cls-11" x="44.45" y="23.03" width="1.01" height="1.01"/><rect class="cls-11" x="45.46" y="23.03" width="1.01" height="1.01"/><rect class="cls-13" x="46.47" y="23.03" width="1.01" height="1.01"/><rect class="cls-10" x="47.49" y="23.03" width="1.01" height="1.01"/><rect class="cls-10" x="26.21" y="24.05" width="1.01" height="1.01"/><rect class="cls-10" x="27.23" y="24.05" width="1.01" height="1.01"/><rect class="cls-10" x="28.24" y="24.05" width="1.01" height="1.01"/><rect class="cls-10" x="29.25" y="24.05" width="1.01" height="1.01"/><rect class="cls-10" x="30.27" y="24.05" width="1.01" height="1.01"/><rect class="cls-10" x="42.42" y="24.05" width="1.01" height="1.01"/><rect class="cls-10" x="43.44" y="24.05" width="1.01" height="1.01"/><rect class="cls-10" x="44.45" y="24.05" width="1.01" height="1.01"/><rect class="cls-10" x="45.46" y="24.05" width="1.01" height="1.01"/><rect class="cls-10" x="46.47" y="24.05" width="1.01" height="1.01"/><rect class="cls-10" x="34.32" y="25.06" width="1.01" height="1.01"/><rect class="cls-10" x="35.33" y="25.06" width="1.01" height="1.01"/><rect class="cls-10" x="36.34" y="25.06" width="1.01" height="1.01"/><rect class="cls-10" x="37.36" y="25.06" width="1.01" height="1.01"/><rect class="cls-10" x="38.37" y="25.06" width="1.01" height="1.01"/><rect class="cls-10" x="33.31" y="26.07" width="1.01" height="1.01"/><rect class="cls-14" x="34.32" y="26.07" width="1.01" height="1.01"/><rect class="cls-14" x="35.33" y="26.07" width="1.01" height="1.01"/><rect class="cls-14" x="36.34" y="26.07" width="1.01" height="1.01"/><rect class="cls-14" x="37.36" y="26.07" width="1.01" height="1.01"/><rect class="cls-14" x="38.37" y="26.07" width="1.01" height="1.01"/><rect class="cls-10" x="39.38" y="26.07" width="1.01" height="1.01"/><rect class="cls-10" x="33.31" y="27.09" width="1.01" height="1.01"/><rect class="cls-14" x="34.32" y="27.09" width="1.01" height="1.01"/><rect class="cls-14" x="35.33" y="27.09" width="1.01" height="1.01"/><rect class="cls-14" x="36.34" y="27.09" width="1.01" height="1.01"/><rect class="cls-14" x="37.36" y="27.09" width="1.01" height="1.01"/><rect class="cls-14" x="38.37" y="27.09" width="1.01" height="1.01"/><rect class="cls-10" x="39.38" y="27.09" width="1.01" height="1.01"/><rect class="cls-10" x="33.31" y="28.1" width="1.01" height="1.01"/><rect class="cls-14" x="34.32" y="28.1" width="1.01" height="1.01"/><rect class="cls-15" x="35.33" y="28.1" width="1.01" height="1.01"/><rect class="cls-15" x="36.34" y="28.1" width="1.01" height="1.01"/><rect class="cls-15" x="37.36" y="28.1" width="1.01" height="1.01"/><rect class="cls-14" x="38.37" y="28.1" width="1.01" height="1.01"/><rect class="cls-10" x="39.38" y="28.1" width="1.01" height="1.01"/><rect class="cls-10" x="33.31" y="29.11" width="1.01" height="1.01"/><rect class="cls-10" x="34.32" y="29.11" width="1.01" height="1.01"/><rect class="cls-10" x="35.33" y="29.11" width="1.01" height="1.01"/><rect class="cls-10" x="36.34" y="29.11" width="1.01" height="1.01"/><rect class="cls-10" x="37.36" y="29.11" width="1.01" height="1.01"/><rect class="cls-10" x="38.37" y="29.11" width="1.01" height="1.01"/><rect class="cls-10" x="39.38" y="29.11" width="1.01" height="1.01"/><rect class="cls-16" width="64" height="64"/></g></g></svg>