<svg xmlns="http://www.w3.org/2000/svg" viewBox="0 0 64.16 64"><defs><style>.cls-1{opacity:0.3;}.cls-2{fill:#633347;}.cls-3{fill:#9a3726;}.cls-4{fill:#b0462c;}.cls-5{fill:#c65a41;}.cls-6{fill:#ffefd1;}.cls-7{fill:#ffd482;}.cls-8{fill:#ffe3b0;}.cls-9{fill:#c15938;}.cls-10{fill:none;}.cls-11{fill:#120a03;}.cls-12{fill:#ea6482;}.cls-13{fill:#f6b0a7;}</style></defs><g id="Capa_2" data-name="Capa 2"><g id="Capa_1-2" data-name="Capa 1"><g class="cls-1"><polygon class="cls-2" points="14.62 52.98 16.51 52.98 18.41 52.98 20.31 52.98 22.21 52.98 24.11 52.98 26.01 52.98 27.91 52.98 29.8 52.98 31.7 52.98 33.6 52.98 35.5 52.98 37.4 52.98 39.3 52.98 41.2 52.98 43.09 52.98 44.99 52.98 46.89 52.98 48.79 52.98 50.69 52.98 52.59 52.98 52.59 51.08 54.49 51.08 54.49 49.18 56.39 49.18 56.39 47.28 58.28 47.28 58.28 45.38 58.28 43.48 60.18 43.48 60.18 41.59 60.18 39.69 60.18 37.79 60.18 35.89 60.18 33.99 60.18 32.09 60.18 30.19 60.18 28.3 58.28 28.3 58.28 26.4 58.28 24.5 56.39 24.5 56.39 22.6 54.49 22.6 54.49 20.7 52.59 20.7 52.59 18.8 50.69 18.8 50.69 16.9 48.79 16.9 48.79 15 46.89 15 44.99 15 43.09 15 43.09 13.11 41.2 13.11 39.3 13.11 37.4 13.11 35.5 13.11 33.6 13.11 31.7 13.11 29.8 13.11 27.91 13.11 26.01 13.11 24.11 13.11 22.21 13.11 20.31 13.11 18.41 13.11 16.51 13.11 16.51 15 14.62 15 12.72 15 12.72 16.9 10.82 16.9 10.82 18.8 10.82 20.7 8.92 20.7 8.92 22.6 8.92 24.5 7.02 24.5 7.02 26.4 7.02 28.3 7.02 30.19 7.02 32.09 7.02 33.99 7.02 35.89 7.02 37.79 7.02 39.69 7.02 41.59 7.02 43.48 7.02 45.38 7.02 47.28 7.02 49.18 7.02 51.08 8.92 51.08 8.92 52.98 10.82 52.98 12.72 52.98 14.62 52.98"/><rect class="cls-3" x="47.84" y="49" width="1.9" height="1.9"/><rect class="cls-3" x="45.94" y="49" width="1.9" height="1.9"/><rect class="cls-3" x="44.04" y="49" width="1.9" height="1.9"/><rect class="cls-3" x="42.15" y="49" width="1.9" height="1.9"/><rect class="cls-3" x="40.25" y="49" width="1.9" height="1.9"/><rect class="cls-3" x="38.35" y="49" width="1.9" height="1.9"/><rect class="cls-3" x="36.45" y="49" width="1.9" height="1.9"/><rect class="cls-3" x="34.55" y="49" width="1.9" height="1.9"/><rect class="cls-3" x="32.65" y="49" width="1.9" height="1.9"/><rect class="cls-3" x="30.75" y="49" width="1.9" height="1.9"/><rect class="cls-3" x="28.85" y="49" width="1.9" height="1.9"/><rect class="cls-3" x="26.96" y="49" width="1.9" height="1.9"/><rect class="cls-3" x="25.06" y="49" width="1.9" height="1.9"/><rect class="cls-3" x="23.16" y="49" width="1.9" height="1.9"/><rect class="cls-3" x="21.26" y="49" width="1.9" height="1.9"/><rect class="cls-3" x="19.36" y="49" width="1.9" height="1.9"/><rect class="cls-3" x="17.46" y="49" width="1.9" height="1.9"/><rect class="cls-3" x="15.56" y="49" width="1.9" height="1.9"/><rect class="cls-3" x="13.67" y="49" width="1.9" height="1.9"/><rect class="cls-3" x="11.77" y="49" width="1.9" height="1.9"/><rect class="cls-3" x="9.87" y="49" width="1.9" height="1.9"/><rect class="cls-3" x="7.97" y="49" width="1.9" height="1.9"/><rect class="cls-3" x="6.07" y="49" width="1.9" height="1.9"/><rect class="cls-3" x="49.74" y="47.1" width="1.9" height="1.9"/><rect class="cls-3" x="47.84" y="47.1" width="1.9" height="1.9"/><rect class="cls-4" x="45.94" y="47.1" width="1.9" height="1.9"/><rect class="cls-4" x="44.04" y="47.1" width="1.9" height="1.9"/><rect class="cls-4" x="42.15" y="47.1" width="1.9" height="1.9"/><rect class="cls-4" x="40.25" y="47.1" width="1.9" height="1.9"/><rect class="cls-4" x="38.35" y="47.1" width="1.9" height="1.9"/><rect class="cls-5" x="36.45" y="47.1" width="1.9" height="1.9"/><rect class="cls-5" x="34.55" y="47.1" width="1.9" height="1.9"/><rect class="cls-4" x="32.65" y="47.1" width="1.9" height="1.9"/><rect class="cls-4" x="30.75" y="47.1" width="1.9" height="1.9"/><rect class="cls-4" x="28.85" y="47.1" width="1.9" height="1.9"/><rect class="cls-6" x="26.96" y="47.1" width="1.9" height="1.9"/><rect class="cls-7" x="25.06" y="47.1" width="1.9" height="1.9"/><rect class="cls-6" x="23.16" y="47.1" width="1.9" height="1.9"/><rect class="cls-8" x="21.26" y="47.1" width="1.9" height="1.9"/><rect class="cls-6" x="19.36" y="47.1" width="1.9" height="1.9"/><rect class="cls-8" x="17.46" y="47.1" width="1.9" height="1.9"/><rect class="cls-8" x="15.56" y="47.1" width="1.9" height="1.9"/><rect class="cls-6" x="13.67" y="47.1" width="1.9" height="1.9"/><rect class="cls-7" x="11.77" y="47.1" width="1.9" height="1.9"/><rect class="cls-6" x="9.87" y="47.1" width="1.9" height="1.9"/><rect class="cls-7" x="7.97" y="47.1" width="1.9" height="1.9"/><rect class="cls-4" x="6.07" y="47.1" width="1.9" height="1.9"/><rect class="cls-4" x="4.17" y="47.1" width="1.9" height="1.9"/><rect class="cls-3" x="51.64" y="45.2" width="1.9" height="1.9"/><rect class="cls-3" x="49.74" y="45.2" width="1.9" height="1.9"/><rect class="cls-4" x="47.84" y="45.2" width="1.9" height="1.9"/><rect class="cls-4" x="45.94" y="45.2" width="1.9" height="1.9"/><rect class="cls-4" x="44.04" y="45.2" width="1.9" height="1.9"/><rect class="cls-4" x="42.15" y="45.2" width="1.9" height="1.9"/><rect class="cls-4" x="40.25" y="45.2" width="1.9" height="1.9"/><rect class="cls-5" x="38.35" y="45.2" width="1.9" height="1.9"/><rect class="cls-5" x="36.45" y="45.2" width="1.9" height="1.9"/><rect class="cls-5" x="34.55" y="45.2" width="1.9" height="1.9"/><rect class="cls-5" x="32.65" y="45.2" width="1.9" height="1.9"/><rect class="cls-4" x="30.75" y="45.2" width="1.9" height="1.9"/><rect class="cls-6" x="28.85" y="45.2" width="1.9" height="1.9"/><rect class="cls-7" x="26.96" y="45.2" width="1.9" height="1.9"/><rect class="cls-6" x="25.06" y="45.2" width="1.9" height="1.9"/><rect class="cls-6" x="23.16" y="45.2" width="1.9" height="1.9"/><rect class="cls-6" x="21.26" y="45.2" width="1.9" height="1.9"/><rect class="cls-6" x="19.36" y="45.2" width="1.9" height="1.9"/><rect class="cls-6" x="17.46" y="45.2" width="1.9" height="1.9"/><rect class="cls-6" x="15.56" y="45.2" width="1.9" height="1.9"/><rect class="cls-6" x="13.67" y="45.2" width="1.9" height="1.9"/><rect class="cls-6" x="11.77" y="45.2" width="1.9" height="1.9"/><rect class="cls-6" x="9.87" y="45.2" width="1.9" height="1.9"/><rect class="cls-6" x="7.97" y="45.2" width="1.9" height="1.9"/><rect class="cls-6" x="6.07" y="45.2" width="1.9" height="1.9"/><rect class="cls-4" x="4.17" y="45.2" width="1.9" height="1.9"/><rect class="cls-3" x="53.54" y="43.3" width="1.9" height="1.9"/><rect class="cls-3" x="51.64" y="43.3" width="1.9" height="1.9"/><rect class="cls-4" x="49.74" y="43.3" width="1.9" height="1.9"/><rect class="cls-4" x="47.84" y="43.3" width="1.9" height="1.9"/><rect class="cls-4" x="45.94" y="43.3" width="1.9" height="1.9"/><rect class="cls-4" x="44.04" y="43.3" width="1.9" height="1.9"/><rect class="cls-4" x="42.15" y="43.3" width="1.9" height="1.9"/><rect class="cls-5" x="40.25" y="43.3" width="1.9" height="1.9"/><rect class="cls-5" x="38.35" y="43.3" width="1.9" height="1.9"/><rect class="cls-5" x="36.45" y="43.3" width="1.9" height="1.9"/><rect class="cls-5" x="34.55" y="43.3" width="1.9" height="1.9"/><rect class="cls-5" x="32.65" y="43.3" width="1.9" height="1.9"/><rect class="cls-4" x="30.75" y="43.3" width="1.9" height="1.9"/><rect class="cls-6" x="28.85" y="43.3" width="1.9" height="1.9"/><rect class="cls-6" x="26.96" y="43.3" width="1.9" height="1.9"/><rect class="cls-6" x="25.06" y="43.3" width="1.9" height="1.9"/><rect class="cls-6" x="23.16" y="43.3" width="1.9" height="1.9"/><rect class="cls-8" x="21.26" y="43.3" width="1.9" height="1.9"/><rect class="cls-6" x="19.36" y="43.3" width="1.9" height="1.9"/><rect class="cls-6" x="17.46" y="43.3" width="1.9" height="1.9"/><rect class="cls-6" x="15.56" y="43.3" width="1.9" height="1.9"/><rect class="cls-6" x="13.67" y="43.3" width="1.9" height="1.9"/><rect class="cls-6" x="11.77" y="43.3" width="1.9" height="1.9"/><rect class="cls-6" x="9.87" y="43.3" width="1.9" height="1.9"/><rect class="cls-8" x="7.97" y="43.3" width="1.9" height="1.9"/><rect class="cls-6" x="6.07" y="43.3" width="1.9" height="1.9"/><rect class="cls-4" x="4.17" y="43.3" width="1.9" height="1.9"/><rect class="cls-3" x="53.54" y="41.4" width="1.9" height="1.9"/><rect class="cls-3" x="51.64" y="41.4" width="1.9" height="1.9"/><rect class="cls-4" x="49.74" y="41.4" width="1.9" height="1.9"/><rect class="cls-4" x="47.84" y="41.4" width="1.9" height="1.9"/><rect class="cls-4" x="45.94" y="41.4" width="1.9" height="1.9"/><rect class="cls-4" x="44.04" y="41.4" width="1.9" height="1.9"/><rect class="cls-5" x="42.15" y="41.4" width="1.9" height="1.9"/><rect class="cls-5" x="40.25" y="41.4" width="1.9" height="1.9"/><rect class="cls-4" x="38.35" y="41.4" width="1.9" height="1.9"/><rect class="cls-5" x="36.45" y="41.4" width="1.9" height="1.9"/><rect class="cls-5" x="34.55" y="41.4" width="1.9" height="1.9"/><rect class="cls-4" x="32.65" y="41.4" width="1.9" height="1.9"/><rect class="cls-4" x="30.75" y="41.4" width="1.9" height="1.9"/><rect class="cls-6" x="28.85" y="41.4" width="1.9" height="1.9"/><rect class="cls-6" x="26.96" y="41.4" width="1.9" height="1.9"/><rect class="cls-6" x="25.06" y="41.4" width="1.9" height="1.9"/><rect class="cls-6" x="23.16" y="41.4" width="1.9" height="1.9"/><rect class="cls-6" x="21.26" y="41.4" width="1.9" height="1.9"/><rect class="cls-6" x="19.36" y="41.4" width="1.9" height="1.9"/><rect class="cls-7" x="17.46" y="41.4" width="1.9" height="1.9"/><rect class="cls-6" x="15.56" y="41.4" width="1.9" height="1.9"/><rect class="cls-6" x="13.67" y="41.4" width="1.9" height="1.9"/><rect class="cls-6" x="11.77" y="41.4" width="1.9" height="1.9"/><rect class="cls-6" x="9.87" y="41.4" width="1.9" height="1.9"/><rect class="cls-6" x="7.97" y="41.4" width="1.9" height="1.9"/><rect class="cls-6" x="6.07" y="41.4" width="1.9" height="1.9"/><rect class="cls-4" x="4.17" y="41.4" width="1.9" height="1.9"/><rect class="cls-3" x="55.44" y="39.5" width="1.9" height="1.9"/><rect class="cls-3" x="53.54" y="39.5" width="1.9" height="1.9"/><rect class="cls-4" x="51.64" y="39.5" width="1.9" height="1.9"/><rect class="cls-4" x="49.74" y="39.5" width="1.9" height="1.9"/><rect class="cls-4" x="47.84" y="39.5" width="1.9" height="1.9"/><rect class="cls-5" x="45.94" y="39.5" width="1.9" height="1.9"/><rect class="cls-5" x="44.04" y="39.5" width="1.9" height="1.9"/><rect class="cls-5" x="42.15" y="39.5" width="1.9" height="1.9"/><rect class="cls-5" x="40.25" y="39.5" width="1.9" height="1.9"/><rect class="cls-5" x="38.35" y="39.5" width="1.9" height="1.9"/><rect class="cls-5" x="36.45" y="39.5" width="1.9" height="1.9"/><rect class="cls-5" x="34.55" y="39.5" width="1.9" height="1.9"/><rect class="cls-4" x="32.65" y="39.5" width="1.9" height="1.9"/><rect class="cls-4" x="30.75" y="39.5" width="1.9" height="1.9"/><rect class="cls-6" x="28.85" y="39.5" width="1.9" height="1.9"/><rect class="cls-6" x="26.96" y="39.5" width="1.9" height="1.9"/><rect class="cls-7" x="25.06" y="39.5" width="1.9" height="1.9"/><rect class="cls-6" x="23.16" y="39.5" width="1.9" height="1.9"/><rect class="cls-6" x="21.26" y="39.5" width="1.9" height="1.9"/><rect class="cls-6" x="19.36" y="39.5" width="1.9" height="1.9"/><rect class="cls-6" x="17.46" y="39.5" width="1.9" height="1.9"/><rect class="cls-6" x="15.56" y="39.5" width="1.9" height="1.9"/><rect class="cls-6" x="13.67" y="39.5" width="1.9" height="1.9"/><rect class="cls-8" x="11.77" y="39.5" width="1.9" height="1.9"/><rect class="cls-6" x="9.87" y="39.5" width="1.9" height="1.9"/><rect class="cls-6" x="7.97" y="39.5" width="1.9" height="1.9"/><rect class="cls-7" x="6.07" y="39.5" width="1.9" height="1.9"/><rect class="cls-4" x="4.17" y="39.5" width="1.9" height="1.9"/><rect class="cls-3" x="55.44" y="37.6" width="1.9" height="1.9"/><rect class="cls-3" x="53.54" y="37.6" width="1.9" height="1.9"/><rect class="cls-4" x="51.64" y="37.6" width="1.9" height="1.9"/><rect class="cls-4" x="49.74" y="37.6" width="1.9" height="1.9"/><rect class="cls-4" x="47.84" y="37.6" width="1.9" height="1.9"/><rect class="cls-4" x="45.94" y="37.6" width="1.9" height="1.9"/><rect class="cls-5" x="44.04" y="37.6" width="1.9" height="1.9"/><rect class="cls-5" x="42.15" y="37.6" width="1.9" height="1.9"/><rect class="cls-5" x="40.25" y="37.6" width="1.9" height="1.9"/><rect class="cls-5" x="38.35" y="37.6" width="1.9" height="1.9"/><rect class="cls-5" x="36.45" y="37.6" width="1.9" height="1.9"/><rect class="cls-5" x="34.55" y="37.6" width="1.9" height="1.9"/><rect class="cls-5" x="32.65" y="37.6" width="1.9" height="1.9"/><rect class="cls-4" x="30.75" y="37.6" width="1.9" height="1.9"/><rect class="cls-7" x="28.85" y="37.6" width="1.9" height="1.9"/><rect class="cls-6" x="26.96" y="37.6" width="1.9" height="1.9"/><rect class="cls-6" x="25.06" y="37.6" width="1.9" height="1.9"/><rect class="cls-6" x="23.16" y="37.6" width="1.9" height="1.9"/><rect class="cls-6" x="21.26" y="37.6" width="1.9" height="1.9"/><rect class="cls-6" x="19.36" y="37.6" width="1.9" height="1.9"/><rect class="cls-6" x="17.46" y="37.6" width="1.9" height="1.9"/><rect class="cls-7" x="15.56" y="37.6" width="1.9" height="1.9"/><rect class="cls-6" x="13.67" y="37.6" width="1.9" height="1.9"/><rect class="cls-6" x="11.77" y="37.6" width="1.9" height="1.9"/><rect class="cls-6" x="9.87" y="37.6" width="1.9" height="1.9"/><rect class="cls-6" x="7.97" y="37.6" width="1.9" height="1.9"/><rect class="cls-6" x="6.07" y="37.6" width="1.9" height="1.9"/><rect class="cls-4" x="4.17" y="37.6" width="1.9" height="1.9"/><rect class="cls-3" x="55.44" y="35.71" width="1.9" height="1.9"/><rect class="cls-3" x="53.54" y="35.71" width="1.9" height="1.9"/><rect class="cls-4" x="51.64" y="35.71" width="1.9" height="1.9"/><rect class="cls-4" x="49.74" y="35.71" width="1.9" height="1.9"/><rect class="cls-4" x="47.84" y="35.71" width="1.9" height="1.9"/><rect class="cls-5" x="45.94" y="35.71" width="1.9" height="1.9"/><rect class="cls-5" x="44.04" y="35.71" width="1.9" height="1.9"/><rect class="cls-5" x="42.15" y="35.71" width="1.9" height="1.9"/><rect class="cls-5" x="40.25" y="35.71" width="1.9" height="1.9"/><rect class="cls-5" x="38.35" y="35.71" width="1.9" height="1.9"/><rect class="cls-5" x="36.45" y="35.71" width="1.9" height="1.9"/><rect class="cls-4" x="34.55" y="35.71" width="1.9" height="1.9"/><rect class="cls-5" x="32.65" y="35.71" width="1.9" height="1.9"/><rect class="cls-4" x="30.75" y="35.71" width="1.9" height="1.9"/><rect class="cls-6" x="28.85" y="35.71" width="1.9" height="1.9"/><rect class="cls-6" x="26.96" y="35.71" width="1.9" height="1.9"/><rect class="cls-8" x="25.06" y="35.71" width="1.9" height="1.9"/><rect class="cls-7" x="23.16" y="35.71" width="1.9" height="1.9"/><rect class="cls-6" x="21.26" y="35.71" width="1.9" height="1.9"/><rect class="cls-6" x="19.36" y="35.71" width="1.9" height="1.9"/><rect class="cls-6" x="17.46" y="35.71" width="1.9" height="1.9"/><rect class="cls-8" x="15.56" y="35.71" width="1.9" height="1.9"/><rect class="cls-6" x="13.67" y="35.71" width="1.9" height="1.9"/><rect class="cls-8" x="11.77" y="35.71" width="1.9" height="1.9"/><rect class="cls-6" x="9.87" y="35.71" width="1.9" height="1.9"/><rect class="cls-7" x="7.97" y="35.71" width="1.9" height="1.9"/><rect class="cls-6" x="6.07" y="35.71" width="1.9" height="1.9"/><rect class="cls-4" x="4.17" y="35.71" width="1.9" height="1.9"/><rect class="cls-3" x="55.44" y="33.81" width="1.9" height="1.9"/><rect class="cls-3" x="53.54" y="33.81" width="1.9" height="1.9"/><rect class="cls-4" x="51.64" y="33.81" width="1.9" height="1.9"/><rect class="cls-4" x="49.74" y="33.81" width="1.9" height="1.9"/><rect class="cls-4" x="47.84" y="33.81" width="1.9" height="1.9"/><rect class="cls-5" x="45.94" y="33.81" width="1.9" height="1.9"/><rect class="cls-4" x="44.04" y="33.81" width="1.9" height="1.9"/><rect class="cls-5" x="42.15" y="33.81" width="1.9" height="1.9"/><rect class="cls-5" x="40.25" y="33.81" width="1.9" height="1.9"/><rect class="cls-5" x="38.35" y="33.81" width="1.9" height="1.9"/><rect class="cls-5" x="36.45" y="33.81" width="1.9" height="1.9"/><rect class="cls-5" x="34.55" y="33.81" width="1.9" height="1.9"/><rect class="cls-5" x="32.65" y="33.81" width="1.9" height="1.9"/><rect class="cls-4" x="30.75" y="33.81" width="1.9" height="1.9"/><rect class="cls-6" x="28.85" y="33.81" width="1.9" height="1.9"/><rect class="cls-6" x="26.96" y="33.81" width="1.9" height="1.9"/><rect class="cls-6" x="25.06" y="33.81" width="1.9" height="1.9"/><rect class="cls-6" x="23.16" y="33.81" width="1.9" height="1.9"/><rect class="cls-6" x="21.26" y="33.81" width="1.9" height="1.9"/><rect class="cls-6" x="19.36" y="33.81" width="1.9" height="1.9"/><rect class="cls-6" x="17.46" y="33.81" width="1.9" height="1.9"/><rect class="cls-6" x="15.56" y="33.81" width="1.9" height="1.9"/><rect class="cls-6" x="13.67" y="33.81" width="1.9" height="1.9"/><rect class="cls-6" x="11.77" y="33.81" width="1.9" height="1.9"/><rect class="cls-6" x="9.87" y="33.81" width="1.9" height="1.9"/><rect class="cls-6" x="7.97" y="33.81" width="1.9" height="1.9"/><rect class="cls-6" x="6.07" y="33.81" width="1.9" height="1.9"/><rect class="cls-4" x="4.17" y="33.81" width="1.9" height="1.9"/><rect class="cls-3" x="55.44" y="31.91" width="1.9" height="1.9"/><rect class="cls-3" x="53.54" y="31.91" width="1.9" height="1.9"/><rect class="cls-4" x="51.64" y="31.91" width="1.9" height="1.9"/><rect class="cls-4" x="49.74" y="31.91" width="1.9" height="1.9"/><rect class="cls-4" x="47.84" y="31.91" width="1.9" height="1.9"/><rect class="cls-4" x="45.94" y="31.91" width="1.9" height="1.9"/><rect class="cls-5" x="44.04" y="31.91" width="1.9" height="1.9"/><rect class="cls-5" x="42.15" y="31.91" width="1.9" height="1.9"/><rect class="cls-5" x="40.25" y="31.91" width="1.9" height="1.9"/><rect class="cls-5" x="38.35" y="31.91" width="1.9" height="1.9"/><rect class="cls-5" x="36.45" y="31.91" width="1.9" height="1.9"/><rect class="cls-5" x="34.55" y="31.91" width="1.9" height="1.9"/><rect class="cls-5" x="32.65" y="31.91" width="1.9" height="1.9"/><rect class="cls-4" x="30.75" y="31.91" width="1.9" height="1.9"/><rect class="cls-7" x="28.85" y="31.91" width="1.9" height="1.9"/><rect class="cls-6" x="26.96" y="31.91" width="1.9" height="1.9"/><rect class="cls-8" x="25.06" y="31.91" width="1.9" height="1.9"/><rect class="cls-6" x="23.16" y="31.91" width="1.9" height="1.9"/><rect class="cls-6" x="21.26" y="31.91" width="1.9" height="1.9"/><rect class="cls-6" x="19.36" y="31.91" width="1.9" height="1.9"/><rect class="cls-6" x="17.46" y="31.91" width="1.9" height="1.9"/><rect class="cls-8" x="15.56" y="31.91" width="1.9" height="1.9"/><rect class="cls-6" x="13.67" y="31.91" width="1.9" height="1.9"/><rect class="cls-6" x="11.77" y="31.91" width="1.9" height="1.9"/><rect class="cls-6" x="9.87" y="31.91" width="1.9" height="1.9"/><rect class="cls-7" x="7.97" y="31.91" width="1.9" height="1.9"/><rect class="cls-6" x="6.07" y="31.91" width="1.9" height="1.9"/><rect class="cls-4" x="4.17" y="31.91" width="1.9" height="1.9"/><rect class="cls-3" x="55.44" y="30.01" width="1.9" height="1.9"/><rect class="cls-3" x="53.54" y="30.01" width="1.9" height="1.9"/><rect class="cls-4" x="51.64" y="30.01" width="1.9" height="1.9"/><rect class="cls-4" x="49.74" y="30.01" width="1.9" height="1.9"/><rect class="cls-5" x="47.84" y="30.01" width="1.9" height="1.9"/><rect class="cls-5" x="45.94" y="30.01" width="1.9" height="1.9"/><rect class="cls-5" x="44.04" y="30.01" width="1.9" height="1.9"/><rect class="cls-5" x="42.15" y="30.01" width="1.9" height="1.9"/><rect class="cls-4" x="40.25" y="30.01" width="1.9" height="1.9"/><rect class="cls-5" x="38.35" y="30.01" width="1.9" height="1.9"/><rect class="cls-5" x="36.45" y="30.01" width="1.9" height="1.9"/><rect class="cls-4" x="34.55" y="30.01" width="1.9" height="1.9"/><rect class="cls-5" x="32.65" y="30.01" width="1.9" height="1.9"/><rect class="cls-4" x="30.75" y="30.01" width="1.9" height="1.9"/><rect class="cls-6" x="28.85" y="30.01" width="1.9" height="1.9"/><rect class="cls-6" x="26.96" y="30.01" width="1.9" height="1.9"/><rect class="cls-6" x="25.06" y="30.01" width="1.9" height="1.9"/><rect class="cls-6" x="23.16" y="30.01" width="1.9" height="1.9"/><rect class="cls-6" x="21.26" y="30.01" width="1.9" height="1.9"/><rect class="cls-7" x="19.36" y="30.01" width="1.9" height="1.9"/><rect class="cls-6" x="17.46" y="30.01" width="1.9" height="1.9"/><rect class="cls-6" x="15.56" y="30.01" width="1.9" height="1.9"/><rect class="cls-6" x="13.67" y="30.01" width="1.9" height="1.9"/><rect class="cls-8" x="11.77" y="30.01" width="1.9" height="1.9"/><rect class="cls-6" x="9.87" y="30.01" width="1.9" height="1.9"/><rect class="cls-6" x="7.97" y="30.01" width="1.9" height="1.9"/><rect class="cls-6" x="6.07" y="30.01" width="1.9" height="1.9"/><rect class="cls-4" x="4.17" y="30.01" width="1.9" height="1.9"/><rect class="cls-3" x="55.44" y="28.11" width="1.9" height="1.9"/><rect class="cls-3" x="53.54" y="28.11" width="1.9" height="1.9"/><rect class="cls-4" x="51.64" y="28.11" width="1.9" height="1.9"/><rect class="cls-4" x="49.74" y="28.11" width="1.9" height="1.9"/><rect class="cls-5" x="47.84" y="28.11" width="1.9" height="1.9"/><rect class="cls-5" x="45.94" y="28.11" width="1.9" height="1.9"/><rect class="cls-5" x="44.04" y="28.11" width="1.9" height="1.9"/><rect class="cls-4" x="42.15" y="28.11" width="1.9" height="1.9"/><rect class="cls-5" x="40.25" y="28.11" width="1.9" height="1.9"/><rect class="cls-5" x="38.35" y="28.11" width="1.9" height="1.9"/><rect class="cls-5" x="36.45" y="28.11" width="1.9" height="1.9"/><rect class="cls-5" x="34.55" y="28.11" width="1.9" height="1.9"/><rect class="cls-5" x="32.65" y="28.11" width="1.9" height="1.9"/><rect class="cls-4" x="30.75" y="28.11" width="1.9" height="1.9"/><rect class="cls-6" x="28.85" y="28.11" width="1.9" height="1.9"/><rect class="cls-7" x="26.96" y="28.11" width="1.9" height="1.9"/><rect class="cls-6" x="25.06" y="28.11" width="1.9" height="1.9"/><rect class="cls-6" x="23.16" y="28.11" width="1.9" height="1.9"/><rect class="cls-6" x="21.26" y="28.11" width="1.9" height="1.9"/><rect class="cls-6" x="19.36" y="28.11" width="1.9" height="1.9"/><rect class="cls-6" x="17.46" y="28.11" width="1.9" height="1.9"/><rect class="cls-6" x="15.56" y="28.11" width="1.9" height="1.9"/><rect class="cls-6" x="13.67" y="28.11" width="1.9" height="1.9"/><rect class="cls-6" x="11.77" y="28.11" width="1.9" height="1.9"/><rect class="cls-6" x="9.87" y="28.11" width="1.9" height="1.9"/><rect class="cls-6" x="7.97" y="28.11" width="1.9" height="1.9"/><rect class="cls-7" x="6.07" y="28.11" width="1.9" height="1.9"/><rect class="cls-4" x="4.17" y="28.11" width="1.9" height="1.9"/><rect class="cls-3" x="55.44" y="26.21" width="1.9" height="1.9"/><rect class="cls-3" x="53.54" y="26.21" width="1.9" height="1.9"/><rect class="cls-4" x="51.64" y="26.21" width="1.9" height="1.9"/><rect class="cls-4" x="49.74" y="26.21" width="1.9" height="1.9"/><rect class="cls-4" x="47.84" y="26.21" width="1.9" height="1.9"/><rect class="cls-4" x="45.94" y="26.21" width="1.9" height="1.9"/><rect class="cls-5" x="44.04" y="26.21" width="1.9" height="1.9"/><rect class="cls-5" x="42.15" y="26.21" width="1.9" height="1.9"/><rect class="cls-5" x="40.25" y="26.21" width="1.9" height="1.9"/><rect class="cls-5" x="38.35" y="26.21" width="1.9" height="1.9"/><rect class="cls-5" x="36.45" y="26.21" width="1.9" height="1.9"/><rect class="cls-5" x="34.55" y="26.21" width="1.9" height="1.9"/><rect class="cls-5" x="32.65" y="26.21" width="1.9" height="1.9"/><rect class="cls-4" x="30.75" y="26.21" width="1.9" height="1.9"/><rect class="cls-7" x="28.85" y="26.21" width="1.9" height="1.9"/><rect class="cls-6" x="26.96" y="26.21" width="1.9" height="1.9"/><rect class="cls-6" x="25.06" y="26.21" width="1.9" height="1.9"/><rect class="cls-6" x="23.16" y="26.21" width="1.9" height="1.9"/><rect class="cls-6" x="21.26" y="26.21" width="1.9" height="1.9"/><rect class="cls-8" x="19.36" y="26.21" width="1.9" height="1.9"/><rect class="cls-6" x="17.46" y="26.21" width="1.9" height="1.9"/><rect class="cls-6" x="15.56" y="26.21" width="1.9" height="1.9"/><rect class="cls-6" x="13.67" y="26.21" width="1.9" height="1.9"/><rect class="cls-6" x="11.77" y="26.21" width="1.9" height="1.9"/><rect class="cls-6" x="9.87" y="26.21" width="1.9" height="1.9"/><rect class="cls-8" x="7.97" y="26.21" width="1.9" height="1.9"/><rect class="cls-7" x="6.07" y="26.21" width="1.9" height="1.9"/><rect class="cls-4" x="4.17" y="26.21" width="1.9" height="1.9"/><rect class="cls-4" x="53.54" y="24.31" width="1.9" height="1.9"/><rect class="cls-4" x="51.64" y="24.31" width="1.9" height="1.9"/><rect class="cls-4" x="49.74" y="24.31" width="1.9" height="1.9"/><rect class="cls-5" x="47.84" y="24.31" width="1.9" height="1.9"/><rect class="cls-5" x="45.94" y="24.31" width="1.9" height="1.9"/><rect class="cls-5" x="44.04" y="24.31" width="1.9" height="1.9"/><rect class="cls-5" x="42.15" y="24.31" width="1.9" height="1.9"/><rect class="cls-5" x="40.25" y="24.31" width="1.9" height="1.9"/><rect class="cls-4" x="38.35" y="24.31" width="1.9" height="1.9"/><rect class="cls-5" x="36.45" y="24.31" width="1.9" height="1.9"/><rect class="cls-4" x="34.55" y="24.31" width="1.9" height="1.9"/><rect class="cls-5" x="32.65" y="24.31" width="1.9" height="1.9"/><rect class="cls-4" x="30.75" y="24.31" width="1.9" height="1.9"/><rect class="cls-6" x="28.85" y="24.31" width="1.9" height="1.9"/><rect class="cls-6" x="26.96" y="24.31" width="1.9" height="1.9"/><rect class="cls-6" x="25.06" y="24.31" width="1.9" height="1.9"/><rect class="cls-6" x="23.16" y="24.31" width="1.9" height="1.9"/><rect class="cls-6" x="21.26" y="24.31" width="1.9" height="1.9"/><rect class="cls-6" x="19.36" y="24.31" width="1.9" height="1.9"/><rect class="cls-6" x="17.46" y="24.31" width="1.9" height="1.9"/><rect class="cls-6" x="15.56" y="24.31" width="1.9" height="1.9"/><rect class="cls-6" x="13.67" y="24.31" width="1.9" height="1.9"/><rect class="cls-8" x="11.77" y="24.31" width="1.9" height="1.9"/><rect class="cls-6" x="9.87" y="24.31" width="1.9" height="1.9"/><rect class="cls-6" x="7.97" y="24.31" width="1.9" height="1.9"/><rect class="cls-6" x="6.07" y="24.31" width="1.9" height="1.9"/><rect class="cls-4" x="4.17" y="24.31" width="1.9" height="1.9"/><rect class="cls-3" x="53.54" y="22.41" width="1.9" height="1.9"/><rect class="cls-3" x="51.64" y="22.41" width="1.9" height="1.9"/><rect class="cls-4" x="49.74" y="22.41" width="1.9" height="1.9"/><rect class="cls-4" x="47.84" y="22.41" width="1.9" height="1.9"/><rect class="cls-5" x="45.94" y="22.41" width="1.9" height="1.9"/><rect class="cls-5" x="44.04" y="22.41" width="1.9" height="1.9"/><rect class="cls-4" x="42.15" y="22.41" width="1.9" height="1.9"/><rect class="cls-5" x="40.25" y="22.41" width="1.9" height="1.9"/><rect class="cls-5" x="38.35" y="22.41" width="1.9" height="1.9"/><rect class="cls-5" x="36.45" y="22.41" width="1.9" height="1.9"/><rect class="cls-5" x="34.55" y="22.41" width="1.9" height="1.9"/><rect class="cls-4" x="32.65" y="22.41" width="1.9" height="1.9"/><rect class="cls-4" x="30.75" y="22.41" width="1.9" height="1.9"/><rect class="cls-4" x="28.85" y="22.41" width="1.9" height="1.9"/><rect class="cls-6" x="26.96" y="22.41" width="1.9" height="1.9"/><rect class="cls-6" x="25.06" y="22.41" width="1.9" height="1.9"/><rect class="cls-6" x="23.16" y="22.41" width="1.9" height="1.9"/><rect class="cls-8" x="21.26" y="22.41" width="1.9" height="1.9"/><rect class="cls-6" x="19.36" y="22.41" width="1.9" height="1.9"/><rect class="cls-6" x="17.46" y="22.41" width="1.9" height="1.9"/><rect class="cls-7" x="15.56" y="22.41" width="1.9" height="1.9"/><rect class="cls-6" x="13.67" y="22.41" width="1.9" height="1.9"/><rect class="cls-6" x="11.77" y="22.41" width="1.9" height="1.9"/><rect class="cls-6" x="9.87" y="22.41" width="1.9" height="1.9"/><rect class="cls-6" x="7.97" y="22.41" width="1.9" height="1.9"/><rect class="cls-4" x="6.07" y="22.41" width="1.9" height="1.9"/><rect class="cls-4" x="4.17" y="22.41" width="1.9" height="1.9"/><rect class="cls-4" x="51.64" y="20.52" width="1.9" height="1.9"/><rect class="cls-9" x="49.74" y="20.52" width="1.9" height="1.9"/><rect class="cls-3" x="47.84" y="20.52" width="1.9" height="1.9"/><rect class="cls-5" x="45.94" y="20.52" width="1.9" height="1.9"/><rect class="cls-5" x="44.04" y="20.52" width="1.9" height="1.9"/><rect class="cls-5" x="42.15" y="20.52" width="1.9" height="1.9"/><rect class="cls-5" x="40.25" y="20.52" width="1.9" height="1.9"/><rect class="cls-5" x="38.35" y="20.52" width="1.9" height="1.9"/><rect class="cls-5" x="36.45" y="20.52" width="1.9" height="1.9"/><rect class="cls-5" x="34.55" y="20.52" width="1.9" height="1.9"/><rect class="cls-5" x="32.65" y="20.52" width="1.9" height="1.9"/><rect class="cls-5" x="30.75" y="20.52" width="1.9" height="1.9"/><rect class="cls-4" x="28.85" y="20.52" width="1.9" height="1.9"/><rect class="cls-7" x="26.96" y="20.52" width="1.9" height="1.9"/><rect class="cls-6" x="25.06" y="20.52" width="1.9" height="1.9"/><rect class="cls-6" x="23.16" y="20.52" width="1.9" height="1.9"/><rect class="cls-6" x="21.26" y="20.52" width="1.9" height="1.9"/><rect class="cls-6" x="19.36" y="20.52" width="1.9" height="1.9"/><rect class="cls-6" x="17.46" y="20.52" width="1.9" height="1.9"/><rect class="cls-6" x="15.56" y="20.52" width="1.9" height="1.9"/><rect class="cls-6" x="13.67" y="20.52" width="1.9" height="1.9"/><rect class="cls-6" x="11.77" y="20.52" width="1.9" height="1.9"/><rect class="cls-8" x="9.87" y="20.52" width="1.9" height="1.9"/><rect class="cls-7" x="7.97" y="20.52" width="1.9" height="1.9"/><rect class="cls-4" x="6.07" y="20.52" width="1.9" height="1.9"/><rect class="cls-4" x="49.74" y="18.62" width="1.9" height="1.9"/><rect class="cls-4" x="47.84" y="18.62" width="1.9" height="1.9"/><rect class="cls-4" x="45.94" y="18.62" width="1.9" height="1.9"/><rect class="cls-4" x="44.04" y="18.62" width="1.9" height="1.9"/><rect class="cls-4" x="42.15" y="18.62" width="1.9" height="1.9"/><rect class="cls-4" x="40.25" y="18.62" width="1.9" height="1.9"/><rect class="cls-5" x="38.35" y="18.62" width="1.9" height="1.9"/><rect class="cls-4" x="36.45" y="18.62" width="1.9" height="1.9"/><rect class="cls-5" x="34.55" y="18.62" width="1.9" height="1.9"/><rect class="cls-5" x="32.65" y="18.62" width="1.9" height="1.9"/><rect class="cls-4" x="30.75" y="18.62" width="1.9" height="1.9"/><rect class="cls-4" x="28.85" y="18.62" width="1.9" height="1.9"/><rect class="cls-4" x="26.96" y="18.62" width="1.9" height="1.9"/><rect class="cls-6" x="25.06" y="18.62" width="1.9" height="1.9"/><rect class="cls-6" x="23.16" y="18.62" width="1.9" height="1.9"/><rect class="cls-6" x="21.26" y="18.62" width="1.9" height="1.9"/><rect class="cls-8" x="19.36" y="18.62" width="1.9" height="1.9"/><rect class="cls-7" x="17.46" y="18.62" width="1.9" height="1.9"/><rect class="cls-6" x="15.56" y="18.62" width="1.9" height="1.9"/><rect class="cls-6" x="13.67" y="18.62" width="1.9" height="1.9"/><rect class="cls-6" x="11.77" y="18.62" width="1.9" height="1.9"/><rect class="cls-6" x="9.87" y="18.62" width="1.9" height="1.9"/><rect class="cls-4" x="7.97" y="18.62" width="1.9" height="1.9"/><rect class="cls-4" x="6.07" y="18.62" width="1.9" height="1.9"/><rect class="cls-4" x="47.84" y="16.72" width="1.9" height="1.9"/><rect class="cls-5" x="45.94" y="16.72" width="1.9" height="1.9"/><rect class="cls-3" x="44.04" y="16.72" width="1.9" height="1.9"/><rect class="cls-4" x="42.15" y="16.72" width="1.9" height="1.9"/><rect class="cls-4" x="40.25" y="16.72" width="1.9" height="1.9"/><rect class="cls-4" x="38.35" y="16.72" width="1.9" height="1.9"/><rect class="cls-4" x="36.45" y="16.72" width="1.9" height="1.9"/><rect class="cls-4" x="34.55" y="16.72" width="1.9" height="1.9"/><rect class="cls-3" x="32.65" y="16.72" width="1.9" height="1.9"/><rect class="cls-5" x="30.75" y="16.72" width="1.9" height="1.9"/><rect class="cls-4" x="28.85" y="16.72" width="1.9" height="1.9"/><rect class="cls-4" x="26.96" y="16.72" width="1.9" height="1.9"/><rect class="cls-4" x="25.06" y="16.72" width="1.9" height="1.9"/><rect class="cls-8" x="23.16" y="16.72" width="1.9" height="1.9"/><rect class="cls-6" x="21.26" y="16.72" width="1.9" height="1.9"/><rect class="cls-8" x="19.36" y="16.72" width="1.9" height="1.9"/><rect class="cls-8" x="17.46" y="16.72" width="1.9" height="1.9"/><rect class="cls-6" x="15.56" y="16.72" width="1.9" height="1.9"/><rect class="cls-6" x="13.67" y="16.72" width="1.9" height="1.9"/><rect class="cls-6" x="11.77" y="16.72" width="1.9" height="1.9"/><rect class="cls-7" x="9.87" y="16.72" width="1.9" height="1.9"/><rect class="cls-4" x="7.97" y="16.72" width="1.9" height="1.9"/><rect class="cls-5" x="45.94" y="14.82" width="1.9" height="1.9"/><rect class="cls-3" x="44.04" y="14.82" width="1.9" height="1.9"/><rect class="cls-4" x="42.15" y="14.82" width="1.9" height="1.9"/><rect class="cls-3" x="40.25" y="14.82" width="1.9" height="1.9"/><rect class="cls-4" x="38.35" y="14.82" width="1.9" height="1.9"/><rect class="cls-4" x="36.45" y="14.82" width="1.9" height="1.9"/><rect class="cls-4" x="34.55" y="14.82" width="1.9" height="1.9"/><rect class="cls-5" x="32.65" y="14.82" width="1.9" height="1.9"/><rect class="cls-4" x="30.75" y="14.82" width="1.9" height="1.9"/><rect class="cls-3" x="28.85" y="14.82" width="1.9" height="1.9"/><rect class="cls-4" x="26.96" y="14.82" width="1.9" height="1.9"/><rect class="cls-4" x="25.06" y="14.82" width="1.9" height="1.9"/><rect class="cls-4" x="23.16" y="14.82" width="1.9" height="1.9"/><rect class="cls-6" x="21.26" y="14.82" width="1.9" height="1.9"/><rect class="cls-6" x="19.36" y="14.82" width="1.9" height="1.9"/><rect class="cls-6" x="17.46" y="14.82" width="1.9" height="1.9"/><rect class="cls-6" x="15.56" y="14.82" width="1.9" height="1.9"/><rect class="cls-6" x="13.67" y="14.82" width="1.9" height="1.9"/><rect class="cls-8" x="11.77" y="14.82" width="1.9" height="1.9"/><rect class="cls-4" x="9.87" y="14.82" width="1.9" height="1.9"/><rect class="cls-4" x="7.97" y="14.82" width="1.9" height="1.9"/><rect class="cls-4" x="44.04" y="12.92" width="1.9" height="1.9"/><rect class="cls-3" x="42.15" y="12.92" width="1.9" height="1.9"/><rect class="cls-3" x="40.25" y="12.92" width="1.9" height="1.9"/><rect class="cls-5" x="38.35" y="12.92" width="1.9" height="1.9"/><rect class="cls-3" x="36.45" y="12.92" width="1.9" height="1.9"/><rect class="cls-4" x="34.55" y="12.92" width="1.9" height="1.9"/><rect class="cls-4" x="32.65" y="12.92" width="1.9" height="1.9"/><rect class="cls-5" x="30.75" y="12.92" width="1.9" height="1.9"/><rect class="cls-4" x="28.85" y="12.92" width="1.9" height="1.9"/><rect class="cls-4" x="26.96" y="12.92" width="1.9" height="1.9"/><rect class="cls-3" x="25.06" y="12.92" width="1.9" height="1.9"/><rect class="cls-4" x="23.16" y="12.92" width="1.9" height="1.9"/><rect class="cls-4" x="21.26" y="12.92" width="1.9" height="1.9"/><rect class="cls-6" x="19.36" y="12.92" width="1.9" height="1.9"/><rect class="cls-7" x="17.46" y="12.92" width="1.9" height="1.9"/><rect class="cls-7" x="15.56" y="12.92" width="1.9" height="1.9"/><rect class="cls-4" x="13.67" y="12.92" width="1.9" height="1.9"/><rect class="cls-4" x="11.77" y="12.92" width="1.9" height="1.9"/><rect class="cls-4" x="9.87" y="12.92" width="1.9" height="1.9"/><rect class="cls-3" x="38.35" y="11.02" width="1.9" height="1.9"/><rect class="cls-5" x="36.45" y="11.02" width="1.9" height="1.9"/><rect class="cls-3" x="34.55" y="11.02" width="1.9" height="1.9"/><rect class="cls-4" x="32.65" y="11.02" width="1.9" height="1.9"/><rect class="cls-4" x="30.75" y="11.02" width="1.9" height="1.9"/><rect class="cls-3" x="28.85" y="11.02" width="1.9" height="1.9"/><rect class="cls-3" x="26.96" y="11.02" width="1.9" height="1.9"/><rect class="cls-4" x="25.06" y="11.02" width="1.9" height="1.9"/><rect class="cls-3" x="23.16" y="11.02" width="1.9" height="1.9"/><rect class="cls-4" x="21.26" y="11.02" width="1.9" height="1.9"/><rect class="cls-4" x="19.36" y="11.02" width="1.9" height="1.9"/><rect class="cls-4" x="17.46" y="11.02" width="1.9" height="1.9"/><rect class="cls-4" x="15.56" y="11.02" width="1.9" height="1.9"/><rect class="cls-4" x="13.67" y="11.02" width="1.9" height="1.9"/></g><rect class="cls-10" width="64" height="64"/><rect class="cls-11" x="31.49" y="14.93" width="1.01" height="1.01"/><rect class="cls-11" x="43.62" y="14.93" width="1.01" height="1.01"/><rect class="cls-11" x="30.48" y="15.94" width="1.01" height="1.01"/><rect class="cls-11" x="44.63" y="15.94" width="1.01" height="1.01"/><rect class="cls-11" x="29.47" y="16.95" width="1.01" height="1.01"/><rect class="cls-11" x="45.65" y="16.95" width="1.01" height="1.01"/><rect class="cls-11" x="27.45" y="18.97" width="1.01" height="1.01"/><rect class="cls-11" x="31.49" y="18.97" width="1.01" height="1.01"/><rect class="cls-11" x="43.62" y="18.97" width="1.01" height="1.01"/><rect class="cls-11" x="47.67" y="18.97" width="1.01" height="1.01"/><rect class="cls-11" x="28.46" y="19.98" width="1.01" height="1.01"/><rect class="cls-11" x="30.48" y="19.98" width="1.01" height="1.01"/><rect class="cls-11" x="44.63" y="19.98" width="1.01" height="1.01"/><rect class="cls-11" x="46.66" y="19.98" width="1.01" height="1.01"/><rect class="cls-11" x="29.47" y="20.99" width="1.01" height="1.01"/><rect class="cls-11" x="45.65" y="20.99" width="1.01" height="1.01"/><rect class="cls-11" x="28.46" y="22.01" width="1.01" height="1.01"/><rect class="cls-11" x="30.48" y="22.01" width="1.01" height="1.01"/><rect class="cls-11" x="44.63" y="22.01" width="1.01" height="1.01"/><rect class="cls-11" x="46.66" y="22.01" width="1.01" height="1.01"/><rect class="cls-11" x="27.45" y="23.02" width="1.01" height="1.01"/><rect class="cls-11" x="31.49" y="23.02" width="1.01" height="1.01"/><rect class="cls-11" x="43.62" y="23.02" width="1.01" height="1.01"/><rect class="cls-11" x="47.67" y="23.02" width="1.01" height="1.01"/><rect class="cls-11" x="35.54" y="24.03" width="1.01" height="1.01"/><rect class="cls-11" x="36.55" y="24.03" width="1.01" height="1.01"/><rect class="cls-11" x="37.56" y="24.03" width="1.01" height="1.01"/><rect class="cls-11" x="38.57" y="24.03" width="1.01" height="1.01"/><rect class="cls-11" x="39.58" y="24.03" width="1.01" height="1.01"/><rect class="cls-11" x="34.53" y="25.04" width="1.01" height="1.01"/><rect class="cls-12" x="35.54" y="25.04" width="1.01" height="1.01"/><rect class="cls-12" x="36.55" y="25.04" width="1.01" height="1.01"/><rect class="cls-12" x="37.56" y="25.04" width="1.01" height="1.01"/><rect class="cls-12" x="38.57" y="25.04" width="1.01" height="1.01"/><rect class="cls-12" x="39.58" y="25.04" width="1.01" height="1.01"/><rect class="cls-11" x="40.59" y="25.04" width="1.01" height="1.01"/><rect class="cls-11" x="34.53" y="26.05" width="1.01" height="1.01"/><rect class="cls-12" x="35.54" y="26.05" width="1.01" height="1.01"/><rect class="cls-13" x="36.55" y="26.05" width="1.01" height="1.01"/><rect class="cls-13" x="37.56" y="26.05" width="1.01" height="1.01"/><rect class="cls-13" x="38.57" y="26.05" width="1.01" height="1.01"/><rect class="cls-12" x="39.58" y="26.05" width="1.01" height="1.01"/><rect class="cls-11" x="40.59" y="26.05" width="1.01" height="1.01"/><rect class="cls-11" x="34.53" y="27.06" width="1.01" height="1.01"/><rect class="cls-11" x="35.54" y="27.06" width="1.01" height="1.01"/><rect class="cls-11" x="36.55" y="27.06" width="1.01" height="1.01"/><rect class="cls-11" x="37.56" y="27.06" width="1.01" height="1.01"/><rect class="cls-11" x="38.57" y="27.06" width="1.01" height="1.01"/><rect class="cls-11" x="39.58" y="27.06" width="1.01" height="1.01"/><rect class="cls-11" x="40.59" y="27.06" width="1.01" height="1.01"/><rect class="cls-10" x="0.16" width="64" height="64"/></g></g></svg>